<?xml version="1.0" encoding="utf-8"?>
<!-- Generator: Adobe Illustrator 23.0.2, SVG Export Plug-In . SVG Version: 6.00 Build 0)  -->
<svg version="1.1" id="Capa_1" xmlns="http://www.w3.org/2000/svg" xmlns:xlink="http://www.w3.org/1999/xlink" x="0px" y="0px"
	 viewBox="0 0 120.5 120.4" style="enable-background:new 0 0 120.5 120.4;" xml:space="preserve">
<style type="text/css">
	.st0{display:none;fill:#FFFFFF;}
	.st1{display:none;}
	.st2{display:inline;fill:#7FBDCF;}
	.st3{display:inline;fill:#F5BE94;}
	.st4{display:inline;fill:#F8E4DF;}
	.st5{display:inline;fill:#1F3D88;}
	.st6{display:inline;}
	.st7{fill:#F5BE94;}
	.st8{fill:#F3AB82;}
	.st9{display:inline;fill:#362010;}
	.st10{display:inline;fill:#FFFFFF;}
	.st11{fill:#EDA780;}
	.st12{display:inline;fill:#724337;}
	.st13{fill:#7FBDCF;}
	.st14{fill:#CDE8EA;}
	.st15{display:inline;fill:none;stroke:#EC9E86;stroke-linecap:round;stroke-linejoin:round;stroke-miterlimit:10;}
	.st16{display:inline;fill:#CB7553;}
	.st17{display:inline;fill:#E29361;}
	.st18{fill:#E29361;}
	.st19{fill:#362010;}
	.st20{fill:#FFFFFF;}
	.st21{fill:#EF7B7F;}
	.st22{display:inline;fill:#F4AA8A;}
	.st23{fill:#E38DBB;}
	.st24{display:inline;fill:#47292B;}
	.st25{display:inline;fill:#2E1818;}
	.st26{fill:#47292B;}
	.st27{fill:#6D4C98;}
	.st28{display:inline;fill:#F1F9F9;}
	.st29{display:inline;fill:#13204E;}
	.st30{display:inline;fill:#182E68;}
	.st31{fill:#E74645;}
	.st32{display:inline;fill:#CDE8EA;}
	.st33{fill:#A8765F;}
	.st34{display:inline;fill:#A8765F;}
	.st35{fill:#4768AD;}
	.st36{display:inline;fill:#7A82BD;}
	.st37{display:inline;fill:#4BA8DC;}
	.st38{display:inline;fill:#4C2710;}
	.st39{display:inline;fill:#381B04;}
	.st40{display:inline;fill:#95BBE1;}
	.st41{display:inline;fill:#985431;}
	.st42{fill:#DA7647;}
	.st43{display:inline;fill:#DA7647;}
	.st44{fill:#5B509D;}
	.st45{display:inline;fill:#83C3D6;}
	.st46{fill:#F8E4DF;}
	.st47{fill:#00B2E8;}
	.st48{fill:#9D5C4D;}
	.st49{fill:none;stroke:#EAA588;stroke-width:1.5;stroke-linecap:round;stroke-linejoin:round;stroke-miterlimit:10;}
	.st50{fill:#EAA588;}
</style>
<rect x="-36.2" y="-45" class="st0" width="453.5" height="368.5"/>
<g>
	<g class="st1">
		<rect x="48.7" y="87.5" class="st2" width="22.4" height="8.3"/>
		<path class="st3" d="M68.9,77.8h-8.1H50.7c0,0,0.5,11.5-1.8,14.8h11h11C68.6,89.3,68.9,77.8,68.9,77.8z"/>
		<path class="st4" d="M50.4,86.5C53,88.2,56.9,89,60,89c3.4,0,6.4-0.9,9.3-2.1c-0.5-4.3-0.4-9.2-0.4-9.2H50.7
			C50.7,77.8,50.8,82.3,50.4,86.5z"/>
		<path class="st3" d="M95.1,100.6l-26.4-9.5H60h-0.3h-8.6l-26.4,9.5c0,0-9.3,3-8.2,17.8h43.2H60h43.2
			C104.5,102.8,95.1,100.6,95.1,100.6z"/>
		<path class="st5" d="M95.1,100.6l-21.6-7.7l-13.6,9.5l-13.3-9.6l-22,7.9c0,0-9.3,3-8.2,17.8h86.8
			C104.5,102.8,95.1,100.6,95.1,100.6z"/>
		<g class="st6">
			<path class="st7" d="M79.8,55.2c-0.6,3.9,0.5,7.3,2.4,7.7c2,0.4,4.1-2.5,4.7-6.4c0.6-3.9-0.5-7.3-2.4-7.7
				C82.6,48.5,80.5,51.3,79.8,55.2z"/>
			<g>
				<g>
					<path class="st8" d="M82.2,54.1c0,0,0-0.2,0.1-0.6c0.1-0.4,0.2-0.9,0.5-1.4c0.2-0.5,0.6-1.1,1.1-1.1c0.1,0,0.3,0,0.4,0.1
						c0,0,0.2,0.1,0.2,0.1c0,0,0.1,0.1,0.1,0.1c0.2,0.2,0.4,0.5,0.5,0.8c0.1,0.3,0.2,0.7,0.2,1.1c0,0.4,0.1,0.8,0,1.1
						c-0.1,0.4-0.1,0.8-0.1,1.1c-0.1,0.3-0.1,0.7-0.2,1c-0.1,0.3-0.1,0.6-0.2,0.8c-0.1,0.3-0.1,0.5-0.2,0.6
						c-0.1,0.4-0.2,0.6-0.2,0.6s0.1-0.2,0.3-0.5c0.1-0.2,0.2-0.4,0.3-0.6c0.1-0.2,0.2-0.5,0.3-0.8c0.1-0.3,0.2-0.6,0.3-1
						c0.1-0.4,0.2-0.7,0.2-1.1c0.1-0.4,0.1-0.9,0-1.3c0-0.4-0.1-0.9-0.3-1.3c-0.1-0.4-0.4-0.8-0.7-1.1c-0.1-0.1-0.2-0.1-0.3-0.2
						c-0.1-0.1-0.1-0.1-0.3-0.1c-0.2,0-0.4-0.1-0.6,0c-0.4,0.1-0.7,0.4-1,0.7c-0.2,0.3-0.4,0.7-0.5,1c-0.2,0.6-0.2,1.2-0.3,1.6
						C82.2,53.9,82.2,54.1,82.2,54.1z"/>
				</g>
				<path class="st8" d="M82.2,54.1c0,0-0.2-0.4,1.1-0.5c0,0,1.4,0.3,0.6,2.2c-0.2,0.4-0.3,0.8-0.4,1.3c-0.1,0.6,0.1,1.5-0.2,2.1
					c-0.4,0.7-1.6,0.3-1.7-0.5c-0.1-0.6,0.6-1.8,0.9-2.2C82.5,56.5,83.4,55.1,82.2,54.1z"/>
				<g>
					<path class="st8" d="M81.6,58.6c0,0,0,0-0.1,0.1c-0.1,0.1-0.1,0.2-0.2,0.4c0,0.1,0,0.2-0.1,0.3c0,0.1,0,0.2,0,0.3
						c0,0.1,0,0.2,0,0.3c0,0.1,0.1,0.2,0.1,0.3c0,0.1,0.1,0.2,0.1,0.3c0.1,0.1,0.1,0.2,0.2,0.2c0.1,0.2,0.3,0.2,0.4,0.3
						c0.3,0.1,0.4,0.1,0.4,0.1s-0.1-0.2-0.2-0.5c0-0.1-0.1-0.1-0.1-0.2c0-0.1-0.1-0.1-0.1-0.2c0-0.1-0.1-0.1-0.1-0.2
						c0-0.1-0.1-0.1-0.1-0.2c-0.1-0.1-0.1-0.3-0.2-0.4c0-0.1,0-0.1-0.1-0.2c0-0.1,0-0.1,0-0.2C81.6,58.9,81.6,58.6,81.6,58.6z"/>
				</g>
			</g>
		</g>
		<g class="st6">
			<path class="st7" d="M40.2,55.2c0.6,3.9-0.5,7.3-2.4,7.7c-2,0.4-4.1-2.5-4.7-6.4c-0.6-3.9,0.5-7.3,2.4-7.7
				C37.5,48.5,39.6,51.3,40.2,55.2z"/>
			<g>
				<g>
					<path class="st8" d="M37.8,54.1c0,0,0-0.2-0.1-0.6c-0.1-0.4-0.2-0.9-0.5-1.4c-0.2-0.5-0.6-1.1-1.1-1.1c-0.1,0-0.3,0-0.4,0.1
						c0,0-0.2,0.1-0.2,0.1c0,0-0.1,0.1-0.1,0.1c-0.2,0.2-0.4,0.5-0.5,0.8c-0.1,0.3-0.2,0.7-0.2,1.1c0,0.4-0.1,0.8,0,1.1
						c0.1,0.4,0.1,0.8,0.1,1.1c0.1,0.3,0.1,0.7,0.2,1c0.1,0.3,0.1,0.6,0.2,0.8c0.1,0.3,0.1,0.5,0.2,0.6c0.1,0.4,0.2,0.6,0.2,0.6
						s-0.1-0.2-0.3-0.5c-0.1-0.2-0.2-0.4-0.3-0.6c-0.1-0.2-0.2-0.5-0.3-0.8c-0.1-0.3-0.2-0.6-0.3-1c-0.1-0.4-0.2-0.7-0.2-1.1
						c-0.1-0.4-0.1-0.9,0-1.3c0-0.4,0.1-0.9,0.3-1.3c0.1-0.4,0.4-0.8,0.7-1.1c0.1-0.1,0.2-0.1,0.3-0.2c0.1-0.1,0.1-0.1,0.3-0.1
						c0.2,0,0.4-0.1,0.6,0c0.4,0.1,0.7,0.4,1,0.7c0.2,0.3,0.4,0.7,0.5,1c0.2,0.6,0.2,1.2,0.3,1.6C37.9,53.9,37.8,54.1,37.8,54.1z"/>
				</g>
				<path class="st8" d="M37.8,54.1c0,0,0.2-0.4-1.1-0.5c0,0-1.4,0.3-0.6,2.2c0.2,0.4,0.3,0.8,0.4,1.3c0.1,0.6-0.1,1.5,0.2,2.1
					c0.4,0.7,1.6,0.3,1.7-0.5c0.1-0.6-0.6-1.8-0.9-2.2C37.5,56.5,36.6,55.1,37.8,54.1z"/>
				<g>
					<path class="st8" d="M38.5,58.6c0,0,0,0,0.1,0.1c0.1,0.1,0.1,0.2,0.2,0.4c0,0.1,0,0.2,0.1,0.3c0,0.1,0,0.2,0,0.3
						c0,0.1,0,0.2,0,0.3c0,0.1-0.1,0.2-0.1,0.3c0,0.1-0.1,0.2-0.1,0.3c-0.1,0.1-0.1,0.2-0.2,0.2c-0.1,0.2-0.3,0.2-0.4,0.3
						c-0.3,0.1-0.4,0.1-0.4,0.1s0.1-0.2,0.2-0.5c0-0.1,0.1-0.1,0.1-0.2c0-0.1,0.1-0.1,0.1-0.2c0-0.1,0.1-0.1,0.1-0.2
						c0-0.1,0.1-0.1,0.1-0.2c0.1-0.1,0.1-0.3,0.2-0.4c0-0.1,0-0.1,0.1-0.2c0-0.1,0-0.1,0-0.2C38.4,58.9,38.5,58.6,38.5,58.6z"/>
				</g>
			</g>
		</g>
		<path class="st3" d="M60.3,13.3L60.3,13.3c-0.1,0-0.2,0-0.3,0c-0.1,0-0.2,0-0.3,0v0c-15.7,0.1-24.5,4.6-22,33.1l2.7,22.7
			c0,0,0.5,4.1,5,6.6l8.5,6.3c0,0,4,1.8,6.1,1.6c2.1,0.2,6.1-1.6,6.1-1.6l8.5-6.3c4.5-2.5,5-6.6,5-6.6l2.8-22.2
			C84.9,18.4,75.9,13.4,60.3,13.3z"/>
		<path class="st9" d="M48.4,48.3c0,1.5,0.8,2.7,1.9,2.7c1,0,1.8-1.2,1.8-2.7c0-1.5-0.8-2.7-1.9-2.7C49.2,45.6,48.4,46.8,48.4,48.3z
			"/>
		<path class="st10" d="M49.5,47.4c0,0.4-0.4,0.8-0.8,0.8c-0.4,0-0.8-0.4-0.8-0.8c0-0.4,0.4-0.8,0.8-0.8
			C49.2,46.6,49.5,47,49.5,47.4z"/>
		<path class="st9" d="M71.6,48.3c0,1.5-0.8,2.7-1.9,2.7c-1,0-1.8-1.2-1.8-2.7c0-1.5,0.8-2.7,1.9-2.7C70.8,45.6,71.6,46.8,71.6,48.3
			z"/>
		<path class="st10" d="M70.5,47.4c0,0.4,0.4,0.8,0.8,0.8c0.4,0,0.8-0.4,0.8-0.8c0-0.4-0.4-0.8-0.8-0.8C70.9,46.6,70.5,47,70.5,47.4
			z"/>
		<g class="st6">
			<g>
				<path class="st11" d="M62.7,62.7c-0.4,0.4-0.9,0.7-1.5,1c-0.5,0.2-1.1,0.4-1.8,0.5c-0.6,0.1-1.3,0-1.9-0.1
					c-0.3-0.1-0.6-0.2-0.9-0.3c-0.3-0.1-0.6-0.3-0.9-0.4l-0.4-0.2l0-0.6c0-0.6,0-1.2,0-1.7c0-0.6,0.1-1.1,0.1-1.7
					c0-0.6,0.2-1.1,0.2-1.7c0.1-0.6,0.2-1.1,0.4-1.6c0.3-1.1,0.6-2.1,1.1-3.2c0.2-0.5,0.5-1,0.7-1.5c0.3-0.5,0.5-1,0.9-1.4
					c0,0.6-0.1,1.1-0.1,1.7c-0.1,0.5-0.2,1.1-0.2,1.6c0,0.5-0.1,1.1-0.2,1.6c-0.1,0.5-0.1,1.1-0.2,1.6c-0.1,0.5-0.1,1.1-0.2,1.6
					c0,0.5-0.1,1.1-0.2,1.6c0,0.5-0.1,1.1-0.1,1.6c0,0.5-0.1,1.1-0.1,1.5l-0.4-0.8c0.2,0.1,0.4,0.3,0.6,0.4c0.2,0.1,0.4,0.2,0.6,0.3
					c0.2,0.1,0.5,0.2,0.7,0.3c0.2,0,0.5,0.1,0.7,0.2c0.2,0.1,0.5,0.1,0.8,0.1c0.3,0,0.5,0,0.8,0C61.6,62.9,62.2,62.9,62.7,62.7z"/>
			</g>
		</g>
		<path class="st12" d="M54.1,42.8c-0.2,0.7-0.8,1.1-1.5,1c-2.6-0.5-5.1-0.2-7.4,0.6c-0.6,0.2-1.3-0.1-1.6-0.7l0,0
			c-0.3-0.6-0.1-1.4,0.6-1.7c2.7-1,5.8-1.3,8.8-0.8C53.8,41.4,54.3,42.1,54.1,42.8L54.1,42.8z"/>
		<path class="st12" d="M65.2,42.8c0.2,0.7,0.8,1.1,1.5,1c2.6-0.5,5.1-0.2,7.4,0.6c0.6,0.2,1.3-0.1,1.6-0.7l0,0
			c0.3-0.6,0.1-1.4-0.6-1.7c-2.7-1-5.8-1.3-8.8-0.8C65.5,41.4,65,42.1,65.2,42.8L65.2,42.8z"/>
		<g class="st6">
			<polygon class="st13" points="59.9,102.4 58.1,93.2 48.7,87.5 47.3,93.3 			"/>
			<polygon class="st14" points="58.1,93.2 53.6,101.4 42.7,94 48.7,87.5 			"/>
		</g>
		<g class="st6">
			<polygon class="st13" points="59.9,102.4 61.7,93.2 71.1,87.5 72.5,93.3 			"/>
			<polygon class="st14" points="61.7,93.2 66.1,101.4 77,94 71.1,87.5 			"/>
		</g>
		<path class="st15" d="M60.8,72.7c0,0-0.9,0.3-2.2,0"/>
		<path class="st10" d="M54.7,68.2l1.3,2.5c0,0,5.7,3.2,9.8-2.4C65.8,68.3,59.5,68.6,54.7,68.2z"/>
		<path class="st12" d="M78.6,36.5c0,0,2,1.3,1.6,6.2L80,52.5h1.7c0,0-0.1-3.7,2.8-3.7L86,27c0,0,1.1-8.7-6.3-13.8
			c0,0-6.3-1.7-8-6.8c0,0-0.5,2.9,0,4.6c0,0-5-1.4-3.7-7.4c0,0-4,1.6-4.1,5.7c0,0-0.2-4.9-3.1-5.7c0,0,1.1,3.7-2.2,5.1
			c0,0-14-0.6-18.2,6.3c0,0-7.6,3.7-6.3,19.6l1.5,14.2c0,0,2,0.9,3.3,3.6h1.5V39.6c0,0-0.1-3,2.3-3c0,0-2.3-11.4,4.6-13.1
			c0,0,10.3-2.8,13,2.4c0,0,0.4-4.2,13.1-2.6C73.3,23.3,81.2,24.4,78.6,36.5z"/>
	</g>
	<g class="st1">
		<rect x="32.6" y="46" class="st16" width="47.8" height="54.2"/>
		<rect x="32.6" y="34.2" class="st17" width="10.3" height="65.9"/>
		<path class="st3" d="M66.3,75.2h-6.7h-8.4c0,0,0.4,11.5-1.5,14.8h9.1h9.1C66.1,86.7,66.3,75.2,66.3,75.2z"/>
		<path class="st4" d="M51.1,82.2c2.8,1.3,5.6,2.6,8.8,2.3c2.3-0.2,4.5-0.9,6.5-1.9c-0.3-3.8-0.2-7.4-0.2-7.4h-15
			C51.2,75.2,51.3,78.6,51.1,82.2z"/>
		<g class="st6">
			<path class="st7" d="M86.7,96.5l-20.9-8.2h-6.8h-0.2h-6.8L31,96.5c0,0-7.3,2.6-6.5,15.4h34.2h0.2h34.2
				C94.2,98.4,86.7,96.5,86.7,96.5z"/>
		</g>
		<g class="st6">
			<g>
				<path class="st7" d="M77.7,53.3c-0.6,3.8,0.5,7.2,2.4,7.6c1.9,0.4,4-2.4,4.6-6.3c0.6-3.8-0.5-7.2-2.4-7.6
					C80.4,46.7,78.3,49.5,77.7,53.3z"/>
				<g>
					<g>
						<path class="st8" d="M80,52.3c0,0,0-0.2,0.1-0.6c0.1-0.4,0.2-0.8,0.5-1.4c0.2-0.5,0.6-1.1,1.1-1.1c0.1,0,0.2,0,0.4,0.1
							c0,0,0.2,0.1,0.2,0.1c0,0,0.1,0.1,0.1,0.1c0.2,0.2,0.4,0.5,0.5,0.8c0.1,0.3,0.2,0.7,0.2,1.1c0,0.4,0.1,0.8,0,1.1
							c-0.1,0.4-0.1,0.8-0.1,1.1c-0.1,0.3-0.1,0.7-0.2,1c-0.1,0.3-0.1,0.6-0.2,0.8c-0.1,0.2-0.1,0.5-0.2,0.6
							c-0.1,0.3-0.1,0.6-0.1,0.6s0.1-0.2,0.3-0.5c0.1-0.2,0.2-0.4,0.3-0.6c0.1-0.2,0.2-0.5,0.3-0.8c0.1-0.3,0.2-0.6,0.3-1
							c0.1-0.4,0.2-0.7,0.2-1.1c0.1-0.4,0.1-0.9,0-1.3c0-0.4-0.1-0.9-0.2-1.3c-0.1-0.4-0.4-0.8-0.7-1.1c-0.1-0.1-0.2-0.1-0.3-0.2
							c-0.1-0.1-0.1-0.1-0.3-0.1c-0.2,0-0.4-0.1-0.6,0c-0.4,0.1-0.7,0.4-1,0.7c-0.2,0.3-0.4,0.6-0.5,1c-0.2,0.6-0.2,1.2-0.3,1.5
							C80,52.1,80,52.3,80,52.3z"/>
					</g>
					<path class="st8" d="M80,52.3c0,0-0.2-0.4,1.1-0.5c0,0,1.4,0.3,0.6,2.2c-0.2,0.4-0.3,0.8-0.4,1.3c-0.1,0.6,0.1,1.5-0.2,2.1
						c-0.4,0.7-1.6,0.3-1.6-0.5c-0.1-0.6,0.6-1.7,0.9-2.2C80.3,54.6,81.3,53.2,80,52.3z"/>
					<g>
						<path class="st8" d="M79.4,56.7c0,0,0,0-0.1,0.1c-0.1,0.1-0.1,0.2-0.2,0.4c0,0.1,0,0.2-0.1,0.3c0,0.1,0,0.2,0,0.3
							c0,0.1,0,0.2,0,0.3c0,0.1,0.1,0.2,0.1,0.3c0,0.1,0.1,0.2,0.1,0.3c0.1,0.1,0.1,0.2,0.2,0.2c0.1,0.2,0.3,0.2,0.4,0.3
							c0.3,0.1,0.4,0.1,0.4,0.1s-0.1-0.2-0.2-0.5c0-0.1-0.1-0.1-0.1-0.2c0-0.1-0.1-0.1-0.1-0.2c0-0.1-0.1-0.1-0.1-0.2
							c0-0.1-0.1-0.1-0.1-0.2c-0.1-0.1-0.1-0.3-0.2-0.4c0-0.1,0-0.1-0.1-0.2c0-0.1,0-0.1,0-0.2C79.5,56.9,79.4,56.7,79.4,56.7z"/>
					</g>
				</g>
			</g>
		</g>
		<g class="st6">
			<g>
				<path class="st7" d="M40.8,53.3c0.6,3.8-0.5,7.2-2.4,7.6c-1.9,0.4-4-2.4-4.6-6.3c-0.6-3.8,0.5-7.2,2.4-7.6
					C38.2,46.7,40.2,49.5,40.8,53.3z"/>
				<g>
					<g>
						<path class="st8" d="M38.5,52.3c0,0,0-0.2-0.1-0.6c-0.1-0.4-0.2-0.8-0.5-1.4c-0.2-0.5-0.6-1.1-1.1-1.1c-0.1,0-0.2,0-0.4,0.1
							c0,0-0.1,0.1-0.2,0.1c0,0-0.1,0.1-0.1,0.1c-0.2,0.2-0.4,0.5-0.5,0.8c-0.1,0.3-0.2,0.7-0.2,1.1c0,0.4-0.1,0.8,0,1.1
							c0.1,0.4,0.1,0.8,0.1,1.1c0.1,0.3,0.1,0.7,0.2,1c0.1,0.3,0.1,0.6,0.2,0.8c0.1,0.2,0.1,0.5,0.2,0.6c0.1,0.3,0.1,0.6,0.1,0.6
							s-0.1-0.2-0.3-0.5c-0.1-0.2-0.2-0.4-0.3-0.6c-0.1-0.2-0.2-0.5-0.3-0.8c-0.1-0.3-0.2-0.6-0.3-1c-0.1-0.4-0.2-0.7-0.2-1.1
							c-0.1-0.4-0.1-0.9,0-1.3c0-0.4,0.1-0.9,0.2-1.3c0.1-0.4,0.4-0.8,0.7-1.1c0.1-0.1,0.2-0.1,0.3-0.2c0.1-0.1,0.1-0.1,0.3-0.1
							c0.2,0,0.4-0.1,0.6,0c0.4,0.1,0.7,0.4,1,0.7c0.2,0.3,0.4,0.6,0.5,1c0.2,0.6,0.2,1.2,0.3,1.5C38.5,52.1,38.5,52.3,38.5,52.3z"
							/>
					</g>
					<path class="st8" d="M38.5,52.3c0,0,0.2-0.4-1.1-0.5c0,0-1.4,0.3-0.6,2.2c0.2,0.4,0.3,0.8,0.4,1.3c0.1,0.6-0.1,1.5,0.2,2.1
						c0.4,0.7,1.6,0.3,1.6-0.5c0.1-0.6-0.6-1.7-0.9-2.2C38.2,54.6,37.3,53.2,38.5,52.3z"/>
					<g>
						<path class="st8" d="M39.1,56.7c0,0,0,0,0.1,0.1c0.1,0.1,0.1,0.2,0.2,0.4c0,0.1,0,0.2,0.1,0.3c0,0.1,0,0.2,0,0.3
							c0,0.1,0,0.2,0,0.3c0,0.1-0.1,0.2-0.1,0.3c0,0.1-0.1,0.2-0.1,0.3c-0.1,0.1-0.1,0.2-0.2,0.2c-0.1,0.2-0.3,0.2-0.4,0.3
							c-0.3,0.1-0.4,0.1-0.4,0.1s0.1-0.2,0.2-0.5c0-0.1,0.1-0.1,0.1-0.2c0-0.1,0.1-0.1,0.1-0.2c0-0.1,0.1-0.1,0.1-0.2
							c0-0.1,0.1-0.1,0.1-0.2c0.1-0.1,0.1-0.3,0.2-0.4c0-0.1,0-0.1,0.1-0.2c0-0.1,0-0.1,0-0.2C39.1,56.9,39.1,56.7,39.1,56.7z"/>
					</g>
				</g>
			</g>
		</g>
		<g class="st6">
			<path class="st7" d="M78.3,22.3c0,0-6.6-7.2-19.6-7.6c-13,0.7-19.5,8.2-19.5,8.2C35.7,34.2,38,47.5,39.5,59
				c1.1,8.5,6.8,14.5,14.1,18.6c0,0,2.6,1.7,5.9,1.8c3.4-0.3,5.9-2,5.9-2c7-4.8,12.4-10.6,13.7-19.3c1.2-7.5,1.4-15.7,1.2-23.3
				C80.1,30.8,79.6,26.2,78.3,22.3z"/>
		</g>
		<g class="st6">
			<g>
				<path class="st18" d="M53.1,45.5c0,0-4.6-1.6-9.4,0.6c0.9-5.1,9.8-3,9.8-3s0.6,0.1,0.5,1.1C54,44.2,53.8,45.8,53.1,45.5z"/>
			</g>
			<g>
				<path class="st18" d="M63.9,45.5c0,0,5.3-1.6,10.1,0.6c-0.9-5.1-10.4-3-10.4-3S63,43.3,63,44.2C63,44.2,63.3,45.8,63.9,45.5z"/>
			</g>
		</g>
		<g class="st6">
			<g>
				<g>
					<path class="st19" d="M47.2,50.3c0,1.5,0.8,2.7,1.9,2.7c1,0,1.8-1.2,1.8-2.7c0-1.5-0.8-2.7-1.9-2.7
						C48,47.6,47.2,48.8,47.2,50.3z"/>
				</g>
				<g>
					<path class="st20" d="M48.3,49.4c0,0.4-0.4,0.8-0.8,0.8c-0.4,0-0.8-0.4-0.8-0.8c0-0.4,0.4-0.8,0.8-0.8
						C48,48.6,48.3,49,48.3,49.4z"/>
				</g>
			</g>
			<g>
				<g>
					<path class="st19" d="M70.4,50.3c0,1.5-0.8,2.7-1.9,2.7c-1,0-1.8-1.2-1.8-2.7c0-1.5,0.8-2.7,1.9-2.7
						C69.6,47.6,70.4,48.8,70.4,50.3z"/>
				</g>
				<g>
					<path class="st20" d="M69.3,49.4c0,0.4,0.4,0.8,0.8,0.8c0.4,0,0.8-0.4,0.8-0.8c0-0.4-0.4-0.8-0.8-0.8
						C69.7,48.6,69.3,49,69.3,49.4z"/>
				</g>
			</g>
		</g>
		<g class="st6">
			<g>
				<path class="st20" d="M54.2,67c0,1.4,2,2.6,4.5,2.6c2.5,0,4.5-1.2,4.5-2.6H54.2z"/>
				<g>
					<path class="st21" d="M63.1,67.4c1.1-0.3,1.5-0.5,1.5-0.5s-0.7-0.3-1.8-0.6c-2.7-1.1-2.5,0.3-3.9,0.3c-0.7,0-1.4-0.8-2.1-0.7
						c-0.7,0.1-1.3,0.2-1.8,0.3c-1.1,0.3-1.8,0.6-1.8,0.6s0.5,0.4,1.6,0.6c0,0,1.6-0.1,2.9,0.1c0,0,1.2,0.3,2,0.1
						C59.7,67.7,61.6,67.3,63.1,67.4"/>
				</g>
				<g>
					<path class="st21" d="M63.7,66.9c-1,1.1-2.7,2.1-5.2,2.1c0,0-2.4,0-4.4-2.1h-0.9c0,0.1,0.1,0.1,0.1,0.2
						c0.2,0.4,0.4,0.9,0.8,1.3c0.2,0.2,0.3,0.5,0.5,0.7c0.2,0.2,0.4,0.4,0.6,0.6l0.3,0.3l0.4,0.3c0.3,0.2,0.5,0.4,0.9,0.5
						c0.3,0.1,0.7,0.3,1,0.3l0.4,0.1l0.2,0l0.1,0l0.1,0l0.2,0l1.1-0.1c0.3-0.1,0.7-0.2,1-0.3c0.3-0.1,0.6-0.3,0.9-0.5l0.4-0.3
						l0.3-0.3c0.2-0.2,0.5-0.4,0.6-0.6c0.2-0.2,0.3-0.5,0.5-0.7c0.3-0.4,0.5-0.9,0.8-1.3c0-0.1,0.1-0.1,0.1-0.2H63.7z"/>
				</g>
			</g>
			<path class="st20" d="M58.8,70.3c3.7-0.3,4.4-2.4,4.4-2.4c-1.7,2.1-4.4,1.8-4.4,1.8s-0.2,0-0.2,0.3C58.5,70,58.6,70.3,58.8,70.3z
				"/>
		</g>
		<path class="st17" d="M87.4,36.4c0,0,1.1-25-21.5-29.1c0,0-16.1-2.6-22.1,7.4l6,15.3c0,0,10.3,10.2,29.9,16.2
			c0,0,0.4,13.7-2.6,18.5c0,0-3.1,5.8-6.2,8.4c0,0-0.9,13.4,8.5,20.6l6.2,2.4l2.6,1.1c0,0,0.5-9.6-3.3-17.8
			C84.9,79.5,94.5,66.8,87.4,36.4z"/>
		<path class="st22" d="M56.2,60.4C56.2,60.4,56.3,60.4,56.2,60.4c0.2,0,0.3-0.1,0.4-0.1c0.2,0,0.5-0.1,0.8-0.2c0.3,0,0.7-0.1,1-0.1
			c0.3,0,0.7,0,1,0c0.3,0,0.6,0,0.9,0.1c0.2,0,0.3,0,0.5,0.1c0.2,0,0.3,0,0.5,0.1c0.1,0,0.3,0.1,0.4,0.1c0.1,0,0.3,0,0.4,0
			c0.1,0,0.2,0,0.3,0.1c0.1,0,0.1,0,0.1,0s0,0,0,0.1c0,0.1,0,0.2-0.1,0.3c-0.1,0.2-0.2,0.5-0.5,0.8c-0.1,0.1-0.3,0.3-0.5,0.4
			c-0.2,0.1-0.4,0.3-0.6,0.3c-0.2,0.1-0.5,0.2-0.7,0.2c-0.2,0.1-0.5,0.1-0.7,0.1c-0.3,0-0.5,0-0.7-0.1c-0.2-0.1-0.5-0.1-0.7-0.2
			c-0.4-0.2-0.8-0.4-1-0.7c-0.3-0.3-0.4-0.5-0.5-0.8C56.3,60.7,56.3,60.6,56.2,60.4C56.2,60.4,56.2,60.4,56.2,60.4z"/>
		<g class="st6">
			<g>
				<path class="st23" d="M67.9,89.2l18.8,7.3c0,0,7.5,1.8,6.5,15.4H58.9h-0.2H24.5C23.6,99.2,31,96.5,31,96.5L50.2,89l8.4,8.8
					L67.9,89.2z"/>
			</g>
		</g>
		<path class="st17" d="M53.1,29c0,0-14,3-14,22.8c0,0-1-5.4-4.3-3.7c0,0-10.5-28.1,14.1-35.5L53.1,29z"/>
		<polygon class="st3" points="47.4,24.5 49,31.7 50.7,30.8 		"/>
	</g>
	<g class="st1">
		<rect x="33.1" y="39.3" class="st24" width="54.8" height="60.8"/>
		<rect x="46.5" y="39.3" class="st25" width="28" height="60.8"/>
		<rect x="33.1" y="35.7" class="st24" width="10.3" height="65.9"/>
		<path class="st3" d="M66.8,75.1h-6.7h-8.4c0,0,0.4,11.5-1.5,14.8h9.1h9.1C66.6,86.6,66.8,75.1,66.8,75.1z"/>
		<path class="st4" d="M51.7,82.2c2.8,1.3,5.6,2.6,8.8,2.3c2.3-0.2,4.5-0.9,6.5-1.9c-0.3-3.8-0.2-7.4-0.2-7.4h-15
			C51.7,75.1,51.9,78.5,51.7,82.2z"/>
		<g class="st6">
			<path class="st7" d="M87.2,96.5l-20.9-8.2h-6.8h-0.2h-6.8l-20.9,8.2c0,0-7.3,2.6-6.5,15.4h34.2h0.2h34.2
				C94.7,98.3,87.2,96.5,87.2,96.5z"/>
		</g>
		<g class="st6">
			<g>
				<path class="st7" d="M78.2,53.2c-0.6,3.8,0.5,7.2,2.4,7.6c1.9,0.4,4-2.4,4.6-6.3c0.6-3.8-0.5-7.2-2.4-7.6
					C80.9,46.6,78.8,49.4,78.2,53.2z"/>
				<g>
					<g>
						<path class="st8" d="M80.6,52.2c0,0,0-0.2,0.1-0.6c0.1-0.4,0.2-0.8,0.5-1.4c0.2-0.5,0.6-1.1,1.1-1.1c0.1,0,0.2,0,0.4,0.1
							c0,0,0.2,0.1,0.2,0.1c0,0,0.1,0.1,0.1,0.1c0.2,0.2,0.4,0.5,0.5,0.8c0.1,0.3,0.2,0.7,0.2,1.1c0,0.4,0.1,0.8,0,1.1
							c-0.1,0.4-0.1,0.8-0.1,1.1c-0.1,0.3-0.1,0.7-0.2,1c-0.1,0.3-0.1,0.6-0.2,0.8c-0.1,0.2-0.1,0.5-0.2,0.6
							c-0.1,0.3-0.1,0.6-0.1,0.6s0.1-0.2,0.3-0.5c0.1-0.2,0.2-0.3,0.3-0.6c0.1-0.2,0.2-0.5,0.3-0.8c0.1-0.3,0.2-0.6,0.3-1
							c0.1-0.4,0.2-0.7,0.2-1.1c0.1-0.4,0.1-0.9,0-1.3c0-0.4-0.1-0.9-0.2-1.3c-0.1-0.4-0.4-0.8-0.7-1.1c-0.1-0.1-0.2-0.1-0.3-0.2
							c-0.1-0.1-0.1-0.1-0.3-0.1c-0.2,0-0.4-0.1-0.6,0c-0.4,0.1-0.7,0.4-1,0.7c-0.2,0.3-0.4,0.6-0.5,1c-0.2,0.6-0.2,1.2-0.3,1.5
							C80.5,52,80.6,52.2,80.6,52.2z"/>
					</g>
					<path class="st8" d="M80.6,52.2c0,0-0.2-0.4,1.1-0.5c0,0,1.4,0.3,0.6,2.2c-0.2,0.4-0.3,0.8-0.4,1.3c-0.1,0.6,0.1,1.5-0.2,2.1
						c-0.4,0.7-1.6,0.3-1.6-0.5c-0.1-0.6,0.6-1.7,0.9-2.2C80.9,54.5,81.8,53.1,80.6,52.2z"/>
					<g>
						<path class="st8" d="M79.9,56.6c0,0,0,0-0.1,0.1c-0.1,0.1-0.1,0.2-0.2,0.4c0,0.1,0,0.2-0.1,0.3c0,0.1,0,0.2,0,0.3
							c0,0.1,0,0.2,0,0.3c0,0.1,0.1,0.2,0.1,0.3c0,0.1,0.1,0.2,0.1,0.3c0.1,0.1,0.1,0.1,0.2,0.2c0.1,0.2,0.3,0.2,0.4,0.3
							c0.3,0.1,0.4,0.1,0.4,0.1s-0.1-0.2-0.2-0.5c0-0.1-0.1-0.1-0.1-0.2c0-0.1-0.1-0.1-0.1-0.2c0-0.1-0.1-0.1-0.1-0.2
							c0-0.1-0.1-0.1-0.1-0.2c-0.1-0.1-0.1-0.3-0.2-0.4c0-0.1,0-0.1-0.1-0.2c0-0.1,0-0.1,0-0.2C80,56.8,79.9,56.6,79.9,56.6z"/>
					</g>
				</g>
			</g>
		</g>
		<g class="st6">
			<g>
				<path class="st7" d="M41.3,53.2c0.6,3.8-0.5,7.2-2.4,7.6c-1.9,0.4-4-2.4-4.6-6.3c-0.6-3.8,0.5-7.2,2.4-7.6
					C38.7,46.6,40.7,49.4,41.3,53.2z"/>
				<g>
					<g>
						<path class="st8" d="M39,52.2c0,0,0-0.2-0.1-0.6c-0.1-0.4-0.2-0.8-0.5-1.4c-0.2-0.5-0.6-1.1-1.1-1.1c-0.1,0-0.2,0-0.4,0.1
							c0,0-0.1,0.1-0.2,0.1c0,0-0.1,0.1-0.1,0.1c-0.2,0.2-0.4,0.5-0.5,0.8c-0.1,0.3-0.2,0.7-0.2,1.1c0,0.4-0.1,0.8,0,1.1
							c0.1,0.4,0.1,0.8,0.1,1.1c0.1,0.3,0.1,0.7,0.2,1c0.1,0.3,0.1,0.6,0.2,0.8c0.1,0.2,0.1,0.5,0.2,0.6c0.1,0.3,0.1,0.6,0.1,0.6
							s-0.1-0.2-0.3-0.5c-0.1-0.2-0.2-0.3-0.3-0.6c-0.1-0.2-0.2-0.5-0.3-0.8c-0.1-0.3-0.2-0.6-0.3-1c-0.1-0.4-0.2-0.7-0.2-1.1
							c-0.1-0.4-0.1-0.9,0-1.3c0-0.4,0.1-0.9,0.2-1.3c0.1-0.4,0.4-0.8,0.7-1.1c0.1-0.1,0.2-0.1,0.3-0.2c0.1-0.1,0.1-0.1,0.3-0.1
							c0.2,0,0.4-0.1,0.6,0c0.4,0.1,0.7,0.4,1,0.7c0.2,0.3,0.4,0.6,0.5,1c0.2,0.6,0.2,1.2,0.3,1.5C39,52,39,52.2,39,52.2z"/>
					</g>
					<path class="st8" d="M39,52.2c0,0,0.2-0.4-1.1-0.5c0,0-1.4,0.3-0.6,2.2c0.2,0.4,0.3,0.8,0.4,1.3c0.1,0.6-0.1,1.5,0.2,2.1
						c0.4,0.7,1.6,0.3,1.6-0.5c0.1-0.6-0.6-1.7-0.9-2.2C38.7,54.5,37.8,53.1,39,52.2z"/>
					<g>
						<path class="st8" d="M39.6,56.6c0,0,0,0,0.1,0.1c0.1,0.1,0.1,0.2,0.2,0.4c0,0.1,0,0.2,0.1,0.3c0,0.1,0,0.2,0,0.3
							c0,0.1,0,0.2,0,0.3c0,0.1-0.1,0.2-0.1,0.3c0,0.1-0.1,0.2-0.1,0.3c-0.1,0.1-0.1,0.1-0.2,0.2c-0.1,0.2-0.3,0.2-0.4,0.3
							c-0.3,0.1-0.4,0.1-0.4,0.1s0.1-0.2,0.2-0.5c0-0.1,0.1-0.1,0.1-0.2c0-0.1,0.1-0.1,0.1-0.2c0-0.1,0.1-0.1,0.1-0.2
							c0-0.1,0.1-0.1,0.1-0.2c0.1-0.1,0.1-0.3,0.2-0.4c0-0.1,0-0.1,0.1-0.2c0-0.1,0-0.1,0-0.2C39.6,56.8,39.6,56.6,39.6,56.6z"/>
					</g>
				</g>
			</g>
		</g>
		<g class="st6">
			<path class="st7" d="M78.8,22.2c0,0-6.6-7.2-19.6-7.6c-13,0.7-19.5,8.2-19.5,8.2c-3.5,11.4-1.3,24.7,0.2,36.2
				c1.1,8.5,6.8,14.5,14.1,18.6c0,0,2.6,1.7,5.9,1.8c3.4-0.3,5.9-2,5.9-2c7-4.8,12.4-10.6,13.7-19.3c1.2-7.5,1.4-15.7,1.2-23.3
				C80.6,30.7,80.2,26.2,78.8,22.2z"/>
		</g>
		<g class="st6">
			<g>
				<g>
					<g>
						<path class="st26" d="M53.6,45.4c0,0-4.6-1.6-9.4,0.6c0.9-5.1,9.8-3,9.8-3s0.6,0.1,0.5,1.1C54.5,44.1,54.3,45.7,53.6,45.4z"/>
					</g>
				</g>
				<g>
					<g>
						<path class="st26" d="M64.4,45.4c0,0,5.3-1.6,10.1,0.6c-0.9-5.1-10.4-3-10.4-3s-0.6,0.1-0.5,1.1
							C63.5,44.1,63.8,45.7,64.4,45.4z"/>
					</g>
				</g>
			</g>
		</g>
		<g class="st6">
			<g>
				<g>
					<path class="st19" d="M47.7,50.2c0,1.5,0.8,2.7,1.9,2.7c1,0,1.8-1.2,1.8-2.7c0-1.5-0.8-2.7-1.9-2.7
						C48.6,47.5,47.7,48.7,47.7,50.2z"/>
				</g>
				<g>
					<path class="st20" d="M48.9,49.4c0,0.4-0.4,0.8-0.8,0.8c-0.4,0-0.8-0.4-0.8-0.8c0-0.4,0.4-0.8,0.8-0.8
						C48.5,48.6,48.9,48.9,48.9,49.4z"/>
				</g>
			</g>
			<g>
				<g>
					<path class="st19" d="M71,50.2c0,1.5-0.8,2.7-1.9,2.7c-1,0-1.8-1.2-1.8-2.7c0-1.5,0.8-2.7,1.9-2.7C70.1,47.5,71,48.7,71,50.2z"
						/>
				</g>
				<g>
					<path class="st20" d="M69.8,49.4c0,0.4,0.4,0.8,0.8,0.8c0.4,0,0.8-0.4,0.8-0.8c0-0.4-0.4-0.8-0.8-0.8
						C70.2,48.6,69.8,48.9,69.8,49.4z"/>
				</g>
			</g>
		</g>
		<g class="st6">
			<g>
				<path class="st20" d="M54.7,66.9c0,1.4,2,2.6,4.5,2.6c2.5,0,4.5-1.2,4.5-2.6H54.7z"/>
				<g>
					<path class="st21" d="M63.6,67.3c1.1-0.3,1.5-0.5,1.5-0.5s-0.7-0.3-1.8-0.6c-2.7-1.1-2.5,0.3-3.9,0.3c-0.7,0-1.4-0.8-2.1-0.7
						c-0.7,0.1-1.3,0.2-1.8,0.3c-1.1,0.3-1.8,0.6-1.8,0.6s0.5,0.4,1.6,0.6c0,0,1.6-0.1,2.9,0.1c0,0,1.2,0.3,2,0.1
						C60.2,67.6,62.1,67.2,63.6,67.3"/>
				</g>
				<g>
					<path class="st21" d="M64.2,66.8c-1,1.1-2.7,2.1-5.2,2.1c0,0-2.4,0-4.4-2.1h-0.9c0,0.1,0.1,0.1,0.1,0.2
						c0.2,0.4,0.4,0.9,0.8,1.3c0.2,0.2,0.3,0.5,0.5,0.7c0.2,0.2,0.4,0.4,0.6,0.6L56,70l0.4,0.3c0.3,0.2,0.5,0.4,0.9,0.5
						c0.3,0.1,0.7,0.3,1,0.3l0.4,0.1l0.2,0l0.1,0l0.1,0l0.2,0l1.1-0.1c0.3-0.1,0.7-0.2,1-0.3c0.3-0.1,0.6-0.3,0.9-0.5l0.4-0.3
						l0.3-0.3c0.2-0.2,0.5-0.4,0.6-0.6c0.2-0.2,0.3-0.5,0.5-0.7c0.3-0.4,0.5-0.9,0.8-1.3c0-0.1,0.1-0.1,0.1-0.2H64.2z"/>
				</g>
			</g>
			<path class="st20" d="M59.3,70.2c3.7-0.2,4.4-2.4,4.4-2.4c-1.7,2.1-4.4,1.8-4.4,1.8s-0.2,0-0.2,0.3C59,69.9,59.1,70.2,59.3,70.2z
				"/>
		</g>
		<path class="st24" d="M87.9,42c0,0,1.1-29.1-21.5-33.3c0,0-16.1-2.6-22.1,7.4l6,15.3c0,0-0.1,5.5,25.1,10.8c0,0,5.2,1.3,5.5,10.9
			C80.9,53.2,81.7,46.5,87.9,42z"/>
		<path class="st22" d="M56.7,60.3C56.7,60.3,56.8,60.3,56.7,60.3c0.2,0,0.3-0.1,0.4-0.1c0.2,0,0.5-0.1,0.8-0.2c0.3,0,0.6-0.1,1-0.1
			c0.3,0,0.7,0,1,0c0.3,0,0.6,0,0.9,0.1c0.2,0,0.3,0,0.5,0.1c0.2,0,0.3,0,0.5,0.1c0.1,0,0.3,0.1,0.4,0.1c0.1,0,0.3,0,0.4,0
			c0.1,0,0.2,0,0.3,0.1c0.1,0,0.1,0,0.1,0s0,0,0,0.1c0,0.1,0,0.2-0.1,0.3c-0.1,0.2-0.2,0.5-0.5,0.8c-0.1,0.1-0.3,0.3-0.5,0.4
			c-0.2,0.1-0.4,0.3-0.6,0.3c-0.2,0.1-0.5,0.2-0.7,0.2c-0.2,0.1-0.5,0.1-0.7,0.1c-0.3,0-0.5,0-0.7-0.1c-0.2-0.1-0.5-0.1-0.7-0.2
			c-0.4-0.2-0.8-0.4-1-0.7c-0.3-0.3-0.4-0.5-0.5-0.8C56.8,60.6,56.8,60.5,56.7,60.3C56.7,60.4,56.7,60.3,56.7,60.3z"/>
		<g class="st6">
			<g>
				<path class="st27" d="M81.3,111.8c-0.1-6,0.3-12.1,5.2-15.6l-18.1-7.1L59,97.8L50.7,89l-18.7,7.3c3.5,2,4.6,7.1,4.9,10.9
					c0.1,1.5,0.2,3.1,0.1,4.7H81.3z"/>
			</g>
		</g>
		<path class="st24" d="M53.6,30.5c0,0-14,3-14,22.8c0,0-0.6-6.4-4.3-5.5c0,0-10.5-26.3,14.1-33.7L53.6,30.5z"/>
		<polygon class="st3" points="47.7,26.3 49,33.4 50.7,32.5 		"/>
	</g>
	<g class="st1">
		<rect x="49.5" y="88.6" class="st2" width="22.4" height="8.3"/>
		<path class="st3" d="M69.8,78.9h-8.1H51.5c0,0,0.5,11.5-1.8,14.8h11h11C69.5,90.4,69.8,78.9,69.8,78.9z"/>
		<path class="st4" d="M51.3,87.6c2.6,1.7,6.5,2.5,9.6,2.5c3.4,0,6.4-0.9,9.3-2.1c-0.5-4.3-0.4-9.2-0.4-9.2H51.5
			C51.5,78.9,51.7,83.4,51.3,87.6z"/>
		<path class="st3" d="M96,101.7l-26.4-9.5h-8.6h-0.3H52l-26.4,9.5c0,0-9.3,3-8.2,17.8h43.2h0.3h43.2C105.4,103.9,96,101.7,96,101.7
			z"/>
		<path class="st28" d="M96,101.7L74.3,94l-13.6,9.5l-13.3-9.6l-22,7.9c0,0-9.3,3-8.2,17.8h86.8C105.4,103.9,96,101.7,96,101.7z"/>
		<path class="st29" d="M47.5,93.9l-22,7.9c0,0-9.3,3-8.2,17.8h35L47.5,93.9z"/>
		<path class="st29" d="M96,101.7L74.3,94l-4.5,25.6h34.3C105.4,103.9,96,101.7,96,101.7z"/>
		<g class="st6">
			<path class="st7" d="M80.7,56.3c-0.6,3.9,0.5,7.3,2.4,7.7c2,0.4,4.1-2.5,4.7-6.4c0.6-3.9-0.5-7.3-2.4-7.7
				C83.4,49.6,81.3,52.4,80.7,56.3z"/>
			<g>
				<g>
					<path class="st8" d="M83.1,55.2c0,0,0-0.2,0.1-0.6c0.1-0.4,0.2-0.9,0.5-1.4c0.2-0.5,0.6-1.1,1.1-1.1c0.1,0,0.3,0,0.4,0.1
						c0,0,0.2,0.1,0.2,0.1c0,0,0.1,0.1,0.1,0.1c0.2,0.2,0.4,0.5,0.5,0.8c0.1,0.3,0.2,0.7,0.2,1.1c0,0.4,0.1,0.8,0,1.1
						c-0.1,0.4-0.1,0.8-0.2,1.1c-0.1,0.3-0.1,0.7-0.2,1c-0.1,0.3-0.1,0.6-0.2,0.8c-0.1,0.3-0.1,0.5-0.2,0.6
						c-0.1,0.4-0.2,0.6-0.2,0.6s0.1-0.2,0.3-0.5c0.1-0.2,0.2-0.4,0.3-0.6c0.1-0.2,0.2-0.5,0.3-0.8c0.1-0.3,0.2-0.6,0.3-1
						c0.1-0.4,0.2-0.7,0.2-1.1c0.1-0.4,0.1-0.9,0-1.3c0-0.4-0.1-0.9-0.3-1.3c-0.1-0.4-0.4-0.8-0.7-1.1c-0.1-0.1-0.2-0.1-0.3-0.2
						c-0.1-0.1-0.1-0.1-0.3-0.1c-0.2,0-0.4-0.1-0.6,0c-0.4,0.1-0.7,0.4-1,0.7c-0.2,0.3-0.4,0.7-0.5,1c-0.2,0.6-0.2,1.2-0.3,1.6
						C83.1,55,83.1,55.2,83.1,55.2z"/>
				</g>
				<path class="st8" d="M83.1,55.2c0,0-0.2-0.4,1.1-0.5c0,0,1.4,0.3,0.6,2.2c-0.2,0.4-0.3,0.8-0.4,1.3c-0.1,0.6,0.1,1.5-0.2,2.1
					c-0.5,0.7-1.6,0.3-1.7-0.5c-0.1-0.7,0.6-1.8,0.9-2.2C83.4,57.6,84.3,56.2,83.1,55.2z"/>
				<g>
					<path class="st8" d="M82.5,59.7c0,0,0,0-0.1,0.1c-0.1,0.1-0.1,0.2-0.2,0.4c0,0.1,0,0.2-0.1,0.3c0,0.1,0,0.2,0,0.3
						c0,0.1,0,0.2,0,0.3c0,0.1,0.1,0.2,0.1,0.3c0,0.1,0.1,0.2,0.1,0.3c0.1,0.1,0.1,0.2,0.2,0.2c0.1,0.2,0.3,0.2,0.4,0.3
						c0.3,0.1,0.4,0.1,0.4,0.1s-0.1-0.2-0.2-0.5c0-0.1-0.1-0.1-0.1-0.2c0-0.1-0.1-0.1-0.1-0.2c0-0.1-0.1-0.1-0.1-0.2
						c0-0.1-0.1-0.1-0.1-0.2c-0.1-0.1-0.1-0.3-0.2-0.4c0-0.1,0-0.1-0.1-0.2c0-0.1,0-0.1,0-0.2C82.5,60,82.5,59.7,82.5,59.7z"/>
				</g>
			</g>
		</g>
		<g class="st6">
			<path class="st7" d="M41.1,56.3c0.6,3.9-0.5,7.3-2.4,7.7c-2,0.4-4.1-2.5-4.7-6.4c-0.6-3.9,0.5-7.3,2.4-7.7
				C38.4,49.6,40.5,52.4,41.1,56.3z"/>
			<g>
				<g>
					<path class="st8" d="M38.7,55.2c0,0,0-0.2-0.1-0.6c-0.1-0.4-0.2-0.9-0.5-1.4c-0.2-0.5-0.6-1.1-1.1-1.1c-0.1,0-0.3,0-0.4,0.1
						c0,0-0.2,0.1-0.2,0.1c0,0-0.1,0.1-0.1,0.1c-0.2,0.2-0.4,0.5-0.5,0.8c-0.1,0.3-0.2,0.7-0.2,1.1c0,0.4-0.1,0.8,0,1.1
						c0.1,0.4,0.1,0.8,0.1,1.1c0.1,0.3,0.1,0.7,0.2,1c0.1,0.3,0.1,0.6,0.2,0.8c0.1,0.3,0.1,0.5,0.2,0.6c0.1,0.4,0.2,0.6,0.2,0.6
						s-0.1-0.2-0.3-0.5c-0.1-0.2-0.2-0.4-0.3-0.6c-0.1-0.2-0.2-0.5-0.3-0.8c-0.1-0.3-0.2-0.6-0.3-1c-0.1-0.4-0.2-0.7-0.2-1.1
						c-0.1-0.4-0.1-0.9,0-1.3c0-0.4,0.1-0.9,0.3-1.3c0.1-0.4,0.4-0.8,0.7-1.1c0.1-0.1,0.2-0.1,0.3-0.2c0.1-0.1,0.1-0.1,0.3-0.1
						c0.2,0,0.4-0.1,0.6,0c0.4,0.1,0.7,0.4,1,0.7c0.2,0.3,0.4,0.7,0.5,1c0.2,0.6,0.2,1.2,0.3,1.6C38.8,55,38.7,55.2,38.7,55.2z"/>
				</g>
				<path class="st8" d="M38.7,55.2c0,0,0.2-0.4-1.1-0.5c0,0-1.4,0.3-0.6,2.2c0.2,0.4,0.3,0.8,0.4,1.3c0.1,0.6-0.1,1.5,0.2,2.1
					c0.4,0.7,1.6,0.3,1.7-0.5c0.1-0.7-0.6-1.8-0.9-2.2C38.4,57.6,37.5,56.2,38.7,55.2z"/>
				<g>
					<path class="st8" d="M39.4,59.7c0,0,0,0,0.1,0.1c0.1,0.1,0.1,0.2,0.2,0.4c0,0.1,0,0.2,0.1,0.3c0,0.1,0,0.2,0,0.3
						c0,0.1,0,0.2,0,0.3c0,0.1-0.1,0.2-0.1,0.3c0,0.1-0.1,0.2-0.1,0.3c-0.1,0.1-0.1,0.2-0.2,0.2c-0.1,0.2-0.3,0.2-0.4,0.3
						c-0.3,0.1-0.4,0.1-0.4,0.1s0.1-0.2,0.2-0.5c0-0.1,0.1-0.1,0.1-0.2c0-0.1,0.1-0.1,0.1-0.2c0-0.1,0.1-0.1,0.1-0.2
						c0-0.1,0.1-0.1,0.1-0.2c0.1-0.1,0.1-0.3,0.2-0.4c0-0.1,0-0.1,0.1-0.2c0-0.1,0-0.1,0-0.2C39.3,60,39.4,59.7,39.4,59.7z"/>
				</g>
			</g>
		</g>
		<path class="st3" d="M61.1,14.4L61.1,14.4c-0.1,0-0.2,0-0.3,0c-0.1,0-0.2,0-0.3,0v0c-15.7,0.1-24.5,4.6-22,33.1l2.7,22.7
			c0,0,0.5,4.1,5,6.6l8.5,6.3c0,0,4,1.8,6.1,1.6c2.1,0.2,6.1-1.6,6.1-1.6l8.5-6.3c4.5-2.5,5-6.6,5-6.6L83.3,48
			C85.7,19.5,76.8,14.5,61.1,14.4z"/>
		<path class="st17" d="M79.5,56.3c-0.6,2.4-0.9,6.3-2.5,8.4c-1.1,1.5-2.7,2.2-4.6,2.3c-1.3,0.1-2.5,0-3.8-0.3
			c-1-0.2-1.9-0.6-2.9-0.7c-1.1,0-1.9,0.4-2.8,0.9c-1.2,0.6-2.2,0.6-3.5,0.2c-1.8-0.6-3.5-1.3-5.5-1.2c-2.2,0.1-4.6,0.7-6.7,0
			c-2.3-0.7-3.4-2.7-4.3-4.7c-0.5-1.1-0.8-3.8-1.2-4.9c-0.4-1.4-1.1-0.4-2.4-0.5l1.7,14.4c0,0,0.5,4.1,5,6.6l8.5,6.3
			c0,0,4,1.8,6.1,1.6c2.1,0.2,6.1-1.6,6.1-1.6l8.5-6.3c4.5-2.5,5-6.6,5-6.6l1.9-14.7C80.9,55.5,79.9,54.6,79.5,56.3z"/>
		<path class="st9" d="M49.3,49.4c0,1.5,0.8,2.7,1.9,2.7c1,0,1.8-1.2,1.8-2.7c0-1.5-0.8-2.7-1.9-2.7C50.1,46.7,49.3,47.9,49.3,49.4z
			"/>
		<path class="st10" d="M50.4,48.5c0,0.4-0.4,0.8-0.8,0.8c-0.4,0-0.8-0.4-0.8-0.8c0-0.4,0.4-0.8,0.8-0.8
			C50.1,47.7,50.4,48.1,50.4,48.5z"/>
		<path class="st9" d="M72.5,49.4c0,1.5-0.8,2.7-1.9,2.7c-1,0-1.8-1.2-1.8-2.7c0-1.5,0.8-2.7,1.9-2.7C71.7,46.7,72.5,47.9,72.5,49.4
			z"/>
		<path class="st10" d="M71.4,48.5c0,0.4,0.4,0.8,0.8,0.8c0.4,0,0.8-0.4,0.8-0.8c0-0.4-0.4-0.8-0.8-0.8
			C71.8,47.7,71.4,48.1,71.4,48.5z"/>
		<g class="st6">
			<g>
				<path class="st11" d="M63.6,63.8c-0.4,0.4-0.9,0.7-1.5,1c-0.5,0.2-1.1,0.4-1.8,0.5c-0.3,0-0.6,0-1,0c-0.3,0-0.6,0-1-0.1
					c-0.3-0.1-0.6-0.2-0.9-0.3c-0.3-0.1-0.6-0.3-0.9-0.4l-0.4-0.2l-0.1-0.6c0-0.3-0.1-0.5-0.1-0.8c0-0.3,0-0.5,0-0.8
					c0-0.5,0.1-1,0.2-1.5c0.1-0.5,0.3-1,0.5-1.4c0.2-0.5,0.5-0.9,0.9-1.3c0.2,0.5,0.3,1,0.4,1.5c0.1,0.5,0.1,1,0.2,1.4
					c0,0.5,0,0.9,0,1.4l0,0.7c0,0.2,0,0.5-0.1,0.7l-0.4-0.8c0.2,0.1,0.4,0.3,0.6,0.4c0.2,0.1,0.4,0.2,0.6,0.3
					c0.2,0.1,0.4,0.2,0.7,0.3c0.2,0,0.5,0.1,0.7,0.2c0.3,0.1,0.5,0.1,0.8,0.1c0.3,0,0.5,0,0.8,0C62.5,64,63,64,63.6,63.8z"/>
			</g>
		</g>
		<path class="st17" d="M55,43.9c-0.2,0.7-0.8,1.1-1.5,1c-2.6-0.5-5.1-0.2-7.4,0.6c-0.6,0.2-1.3-0.1-1.6-0.7l0,0
			c-0.3-0.6-0.1-1.4,0.6-1.7c2.7-1,5.8-1.3,8.8-0.8C54.7,42.5,55.2,43.2,55,43.9L55,43.9z"/>
		<path class="st17" d="M66.1,43.9c0.2,0.7,0.8,1.1,1.5,1c2.6-0.5,5.1-0.2,7.4,0.6c0.6,0.2,1.3-0.1,1.6-0.7l0,0
			c0.3-0.6,0.1-1.4-0.6-1.7c-2.7-1-5.8-1.3-8.8-0.8C66.4,42.5,65.9,43.2,66.1,43.9L66.1,43.9z"/>
		<path class="st15" d="M61.7,73.8c0,0-0.9,0.3-2.2,0"/>
		<path class="st10" d="M55.6,69.3l1.3,2.5c0,0,5.7,3.2,9.8-2.4C66.6,69.4,60.4,69.7,55.6,69.3z"/>
		<g class="st6">
			<path class="st18" d="M83.7,15.6c1.8-8-7.9-9.2-7.9-9.2C65.6,6.1,58.3,4,58.3,4c-19.8-2.8-22.1,7.1-22.1,7.1
				C33.8,18.1,34,22.5,34,22.5l2.4,27.5c0,0,2-0.3,2.7,2.7l0.5,3.6l2.3,0c-0.6-11.3-0.6-20.6-0.6-20.6c0.2-3.3,0-8.2,5.1-8.7
				c2.5,0.5,5.1,0.8,7.7,1c4.8,0.4,8.6,0.4,14.6-0.4c3.1-0.4,8.6-1.6,10.8,1.4c1.6,2.1,1.5,5.6,1.6,8.1c0,1.4-0.1,2.7-0.2,4.1
				c0,0-1.3,15.1-1.3,15.1h2.7c0.4-6.9,4-5.9,4-5.9c2.1-15.5,4.2-25.6,4.2-25.6C90.6,24.7,91.3,16.2,83.7,15.6"/>
		</g>
		<g class="st6">
			<path class="st18" d="M84.5,11.8c0,0,2.2,2-0.8,4.5l2.6,3c0,0,2.7-3.9,4.7-2.3c0,0-0.6-2.3-3.6-1.6
				C87.4,15.4,88.6,12.1,84.5,11.8z"/>
		</g>
		<polygon class="st30" points="47.5,93.9 52.3,119.5 47.1,119.5 35.8,98 		"/>
		<polygon class="st30" points="74.3,94 69.9,119.5 74.8,119.5 84.6,97.6 		"/>
		<polygon class="st2" points="60.8,103.4 59,94.3 49.5,88.6 48.2,94.3 		"/>
		<polygon class="st2" points="60.8,103.4 62.5,94.3 72,88.6 73.3,94.3 		"/>
		<g class="st6">
			<path class="st31" d="M65.3,95.5H61h-0.6h-4.2c0,0-2,1.2-1.2,3.3l2.9,4.5h2.2h1.3h2.2l2.9-4.5C67.3,96.7,65.3,95.5,65.3,95.5z"/>
			<path class="st31" d="M65.9,96.1c0.2,0.8,0.1,1.7-0.2,2.7c-0.6,1.9-2,3.3-4,3.7c-1.8,0.3-3.6-0.5-4.1-2.3
				c-0.5-1.6-0.7-3.4,0.3-4.6h-1.6c0,0-2,1.2-1.2,3.3l2.9,4.5h5.6l2.9-4.5C66.9,97.6,66.4,96.6,65.9,96.1z"/>
			<polygon class="st31" points="58,103.4 54.9,119.5 66.6,119.5 63.5,103.4 			"/>
		</g>
		<polygon class="st32" points="59,94.3 54.5,102.5 43.6,95.1 49.5,88.6 		"/>
		<polygon class="st32" points="62.5,94.3 67,102.5 77.9,95.1 72,88.6 		"/>
	</g>
	<g class="st1">
		<path class="st3" d="M68.3,77.7h-6.7h-8.4c0,0,0.4,11.5-1.5,14.8h9.1H70C68.1,89.2,68.3,77.7,68.3,77.7z"/>
		<path class="st4" d="M53.2,84.8c2.8,1.3,5.6,2.6,8.8,2.3c2.3-0.2,4.5-0.9,6.5-1.9c-0.3-3.8-0.2-7.4-0.2-7.4h-15
			C53.3,77.7,53.4,81.1,53.2,84.8z"/>
		<g class="st6">
			<path class="st7" d="M88.8,99.1l-20.9-8.2H61h-0.2H54L33,99.1c0,0-7.3,2.6-6.5,15.4h34.2H61h34.2C96.2,100.9,88.8,99.1,88.8,99.1
				z"/>
		</g>
		<g class="st6">
			<g>
				<path class="st7" d="M79.8,55.8c-0.6,3.8,0.5,7.2,2.4,7.6c1.9,0.4,4-2.4,4.6-6.3c0.6-3.8-0.5-7.2-2.4-7.6
					C82.5,49.2,80.4,52,79.8,55.8z"/>
				<g>
					<g>
						<path class="st8" d="M82.1,54.8c0,0,0-0.2,0.1-0.6c0.1-0.4,0.2-0.8,0.5-1.4c0.2-0.5,0.6-1.1,1.1-1.1c0.1,0,0.2,0,0.4,0.1
							c0,0,0.1,0.1,0.2,0.1c0,0,0.1,0.1,0.1,0.1c0.2,0.2,0.4,0.5,0.5,0.8c0.1,0.3,0.2,0.7,0.2,1.1c0,0.4,0.1,0.8,0,1.1
							c-0.1,0.4-0.1,0.8-0.1,1.1c-0.1,0.3-0.1,0.7-0.2,1c-0.1,0.3-0.1,0.6-0.2,0.8c-0.1,0.2-0.1,0.5-0.2,0.6
							c-0.1,0.3-0.1,0.6-0.1,0.6s0.1-0.2,0.3-0.5c0.1-0.2,0.2-0.4,0.3-0.6c0.1-0.2,0.2-0.5,0.3-0.8c0.1-0.3,0.2-0.6,0.3-1
							c0.1-0.4,0.2-0.7,0.2-1.1c0.1-0.4,0.1-0.9,0-1.3c0-0.4-0.1-0.9-0.2-1.3c-0.1-0.4-0.4-0.8-0.7-1.1c-0.1-0.1-0.2-0.1-0.3-0.2
							c-0.1-0.1-0.1-0.1-0.3-0.1c-0.2,0-0.4-0.1-0.6,0c-0.4,0.1-0.7,0.4-0.9,0.7c-0.2,0.3-0.4,0.7-0.5,1c-0.2,0.6-0.2,1.2-0.3,1.5
							C82.1,54.6,82.1,54.8,82.1,54.8z"/>
					</g>
					<path class="st8" d="M82.1,54.8c0,0-0.2-0.4,1.1-0.5c0,0,1.4,0.3,0.6,2.2c-0.2,0.4-0.3,0.8-0.4,1.3c-0.1,0.6,0.1,1.5-0.2,2.1
						c-0.4,0.7-1.6,0.3-1.6-0.5c-0.1-0.6,0.6-1.7,0.9-2.2C82.4,57.1,83.3,55.7,82.1,54.8z"/>
					<g>
						<path class="st8" d="M81.5,59.2c0,0,0,0-0.1,0.1c-0.1,0.1-0.1,0.2-0.2,0.4c0,0.1,0,0.2-0.1,0.3c0,0.1,0,0.2,0,0.3
							c0,0.1,0,0.2,0,0.3c0,0.1,0.1,0.2,0.1,0.3c0,0.1,0.1,0.2,0.1,0.3c0.1,0.1,0.1,0.1,0.2,0.2c0.1,0.2,0.3,0.2,0.4,0.3
							c0.3,0.1,0.4,0.1,0.4,0.1s-0.1-0.2-0.2-0.5c0-0.1-0.1-0.1-0.1-0.2c0-0.1-0.1-0.1-0.1-0.2c0-0.1-0.1-0.1-0.1-0.2
							c0-0.1-0.1-0.1-0.1-0.2c-0.1-0.1-0.1-0.3-0.2-0.4c0-0.1,0-0.1-0.1-0.2c0-0.1,0-0.1,0-0.2C81.5,59.5,81.5,59.2,81.5,59.2z"/>
					</g>
				</g>
			</g>
		</g>
		<g class="st6">
			<g>
				<path class="st7" d="M42.9,55.8c0.6,3.8-0.5,7.2-2.4,7.6c-1.9,0.4-4-2.4-4.6-6.3c-0.6-3.8,0.5-7.2,2.4-7.6
					C40.2,49.2,42.3,52,42.9,55.8z"/>
				<g>
					<g>
						<path class="st8" d="M40.6,54.8c0,0,0-0.2-0.1-0.6c-0.1-0.4-0.2-0.8-0.5-1.4c-0.2-0.5-0.6-1.1-1.1-1.1c-0.1,0-0.2,0-0.4,0.1
							c0,0-0.1,0.1-0.2,0.1c0,0-0.1,0.1-0.1,0.1c-0.2,0.2-0.4,0.5-0.5,0.8c-0.1,0.3-0.2,0.7-0.2,1.1c0,0.4-0.1,0.8,0,1.1
							c0.1,0.4,0.1,0.8,0.1,1.1c0.1,0.3,0.1,0.7,0.2,1c0.1,0.3,0.1,0.6,0.2,0.8c0.1,0.2,0.1,0.5,0.2,0.6c0.1,0.3,0.1,0.6,0.1,0.6
							s-0.1-0.2-0.3-0.5c-0.1-0.2-0.2-0.4-0.3-0.6c-0.1-0.2-0.2-0.5-0.3-0.8c-0.1-0.3-0.2-0.6-0.3-1c-0.1-0.4-0.2-0.7-0.2-1.1
							c-0.1-0.4-0.1-0.9,0-1.3c0-0.4,0.1-0.9,0.2-1.3c0.1-0.4,0.4-0.8,0.7-1.1c0.1-0.1,0.2-0.1,0.3-0.2c0.1-0.1,0.1-0.1,0.3-0.1
							c0.2,0,0.4-0.1,0.6,0c0.4,0.1,0.7,0.4,1,0.7c0.2,0.3,0.4,0.7,0.5,1c0.2,0.6,0.2,1.2,0.3,1.5C40.6,54.6,40.6,54.8,40.6,54.8z"
							/>
					</g>
					<path class="st8" d="M40.6,54.8c0,0,0.2-0.4-1.1-0.5c0,0-1.4,0.3-0.6,2.2c0.2,0.4,0.3,0.8,0.4,1.3c0.1,0.6-0.1,1.5,0.2,2.1
						c0.4,0.7,1.6,0.3,1.6-0.5c0.1-0.6-0.6-1.7-0.9-2.2C40.3,57.1,39.4,55.7,40.6,54.8z"/>
					<g>
						<path class="st8" d="M41.2,59.2c0,0,0,0,0.1,0.1c0.1,0.1,0.1,0.2,0.2,0.4c0,0.1,0,0.2,0.1,0.3c0,0.1,0,0.2,0,0.3
							c0,0.1,0,0.2,0,0.3c0,0.1-0.1,0.2-0.1,0.3c0,0.1-0.1,0.2-0.1,0.3c-0.1,0.1-0.1,0.1-0.2,0.2c-0.1,0.2-0.3,0.2-0.4,0.3
							c-0.3,0.1-0.4,0.1-0.4,0.1s0.1-0.2,0.2-0.5c0-0.1,0.1-0.1,0.1-0.2c0-0.1,0.1-0.1,0.1-0.2c0-0.1,0.1-0.1,0.1-0.2
							c0-0.1,0.1-0.1,0.1-0.2c0.1-0.1,0.1-0.3,0.2-0.4c0-0.1,0-0.1,0.1-0.2c0-0.1,0-0.1,0-0.2C41.2,59.5,41.2,59.2,41.2,59.2z"/>
					</g>
				</g>
			</g>
		</g>
		<g class="st6">
			<path class="st7" d="M80.4,24.8c0,0-6.6-7.2-19.6-7.6c-13,0.7-19.5,8.2-19.5,8.2C37.8,36.7,40,50,41.5,61.6
				c1.1,8.5,6.8,14.5,14.1,18.6c0,0,2.6,1.7,5.9,1.8c3.4-0.3,5.9-2,5.9-2c7-4.8,12.4-10.6,13.7-19.3c1.2-7.5,1.4-15.7,1.2-23.3
				C82.2,33.3,81.7,28.8,80.4,24.8z"/>
		</g>
		<g class="st6">
			<g>
				<g>
					<g>
						<path class="st33" d="M55.2,48.1c0,0-4.6-1.6-9.4,0.6c0.9-5.1,9.8-3,9.8-3s0.6,0.1,0.5,1.1C56.1,46.7,55.9,48.3,55.2,48.1z"/>
					</g>
				</g>
				<g>
					<g>
						<g>
							<path class="st33" d="M66,48.1c0,0,5.3-1.6,10.1,0.6c-0.9-5.1-10.4-3-10.4-3s-0.6,0.1-0.5,1.1C65.1,46.7,65.3,48.3,66,48.1z"
								/>
						</g>
					</g>
				</g>
			</g>
		</g>
		<g class="st6">
			<g>
				<g>
					<path class="st19" d="M49.3,52.8c0,1.5,0.8,2.7,1.9,2.7c1,0,1.8-1.2,1.8-2.7c0-1.5-0.8-2.7-1.9-2.7
						C50.1,50.1,49.3,51.3,49.3,52.8z"/>
				</g>
				<g>
					<path class="st20" d="M50.4,52c0,0.4-0.4,0.8-0.8,0.8c-0.4,0-0.8-0.4-0.8-0.8c0-0.4,0.4-0.8,0.8-0.8
						C50.1,51.2,50.4,51.5,50.4,52z"/>
				</g>
			</g>
			<g>
				<g>
					<path class="st19" d="M72.5,52.8c0,1.5-0.8,2.7-1.9,2.7c-1,0-1.8-1.2-1.8-2.7c0-1.5,0.8-2.7,1.9-2.7
						C71.7,50.1,72.5,51.3,72.5,52.8z"/>
				</g>
				<g>
					<path class="st20" d="M71.4,52c0,0.4,0.4,0.8,0.8,0.8c0.4,0,0.8-0.4,0.8-0.8c0-0.4-0.4-0.8-0.8-0.8
						C71.8,51.2,71.4,51.5,71.4,52z"/>
				</g>
			</g>
		</g>
		<g class="st6">
			<g>
				<path class="st20" d="M56.3,69.6c0,1.4,2,2.6,4.5,2.6c2.5,0,4.5-1.2,4.5-2.6H56.3z"/>
				<g>
					<path class="st21" d="M65.4,69.8c1.1-0.3,1.2-0.4,1.2-0.4s-0.7-0.3-1.8-0.6c-2.7-1.1-2.5,0.3-3.9,0.3c-0.7,0-1.4-0.8-2.1-0.7
						c-0.7,0.1-1.3,0.2-1.8,0.3c-1.1,0.3-1.8,0.6-1.8,0.6s0,0.2,1.1,0.4c0,0,2.1-0.3,3.4-0.1c0,0,1.2,0.3,2,0
						C61.7,69.8,63.9,69.6,65.4,69.8"/>
				</g>
				<g>
					<path class="st21" d="M65.7,69.4c-1,1.1-2.2,2.7-5.1,2.7c0,0-3.4,0.2-4.5-2.7h-0.9c0,0.1,0.1,0.1,0.1,0.2
						c0.2,0.4,0.4,0.9,0.8,1.3c0.2,0.2,0.3,0.5,0.5,0.7c0.2,0.2,0.4,0.4,0.6,0.6l0.3,0.3l0.4,0.3c0.3,0.2,0.5,0.4,0.9,0.5
						c0.3,0.1,0.7,0.3,1,0.3l0.4,0.1l0.2,0l0.1,0l0.1,0l0.2,0l1.1-0.1c0.3-0.1,0.7-0.2,1-0.3c0.3-0.1,0.6-0.3,0.9-0.5l0.4-0.3
						l0.3-0.3c0.2-0.2,0.5-0.4,0.6-0.6c0.2-0.2,0.3-0.5,0.5-0.7c0.3-0.4,0.5-0.9,0.8-1.3c0-0.1,0.1-0.1,0.1-0.2H65.7z"/>
				</g>
			</g>
			<path class="st20" d="M61,73.2c3.7-0.6,4.2-2.8,4.2-2.8c-1.5,2.2-4.3,2.2-4.3,2.2s-0.2,0-0.2,0.3C60.7,73,60.8,73.3,61,73.2z"/>
		</g>
		<path class="st34" d="M87.6,41.6c0,0,1.5-25.6-19.6-30.2c0,0-16.1-2.6-22.1,7.4l12.5,10.1c0,0,6.2,11.6,18.6,16
			c0,0,5.2,1.3,5.5,10.9c0,0,0.7-5.3,3.7-4.8C86.1,51,87.6,44.5,87.6,41.6z"/>
		<path class="st22" d="M58.3,63C58.3,63,58.3,62.9,58.3,63c0.2,0,0.3-0.1,0.4-0.1c0.2,0,0.5-0.1,0.8-0.2c0.3,0,0.6-0.1,1-0.1
			c0.3,0,0.7,0,1,0c0.3,0,0.6,0,0.9,0.1c0.2,0,0.3,0,0.5,0.1c0.2,0,0.3,0,0.5,0.1c0.1,0,0.3,0.1,0.4,0.1c0.1,0,0.3,0,0.4,0
			c0.1,0,0.2,0,0.3,0.1c0.1,0,0.1,0,0.1,0s0,0,0,0.1c0,0.1,0,0.2-0.1,0.3c-0.1,0.2-0.2,0.5-0.5,0.8c-0.1,0.1-0.3,0.3-0.5,0.4
			c-0.2,0.1-0.4,0.3-0.6,0.3c-0.2,0.1-0.5,0.2-0.7,0.2c-0.2,0.1-0.5,0.1-0.7,0.1c-0.3,0-0.5,0-0.7-0.1c-0.2-0.1-0.5-0.1-0.7-0.2
			c-0.4-0.2-0.8-0.4-1-0.7c-0.3-0.3-0.4-0.5-0.5-0.8C58.4,63.2,58.4,63.1,58.3,63C58.3,63,58.3,63,58.3,63z"/>
		<g class="st6">
			<g>
				<path class="st35" d="M70,91.8l18.1,7.1c-4.8,3.6-5.2,9.6-5.2,15.6H38.5c0.1-1.6,0-3.2-0.1-4.7c-0.3-3.7-1.3-8.9-4.9-10.9
					l18.7-7.3c0,0,0.6,5.8,8.7,5.8C60.9,97.4,69.5,97.6,70,91.8z"/>
			</g>
		</g>
		<path class="st34" d="M43.4,44.3c-2.9,2.1-2.2,7.1-2.2,11.6c0,0-0.6-6.4-4.3-5.5c0,0-7.2-27.7,10.8-33.2l12.1,11.2
			C59.7,28.4,58.3,33.5,43.4,44.3z"/>
		<path class="st34" d="M35.7,33.5c0,0-11.4,51.7,10.7,59.1c0,0-0.6-8.2,6.9-10.5l0-3.2c0,0-6.1-4.5-6.8-5.9c0,0-4.1-3.9-5-11.3
			c0,0-0.8-10.5,0.1-14.6L35.7,33.5z"/>
		<path class="st34" d="M86.2,33.5c0,0,11.4,51.7-10.7,59.1c0,0,0.6-8.2-6.9-10.5l0-3.2c0,0,6.1-4.5,6.8-5.9c0,0,4.1-3.9,5-11.3
			c0,0,0.8-10.5-0.1-14.6L86.2,33.5z"/>
	</g>
	<g class="st1">
		<rect x="49" y="88.7" class="st36" width="22.4" height="8.3"/>
		<path class="st3" d="M69.2,79.1h-8.1H51c0,0,0.5,11.5-1.8,14.8h11h11C69,90.6,69.2,79.1,69.2,79.1z"/>
		<path class="st4" d="M50.7,87.7c2.6,1.7,6.5,2.5,9.6,2.5c3.4,0,6.4-0.9,9.3-2.1c-0.5-4.3-0.4-9.2-0.4-9.2H51
			C51,79.1,51.2,83.6,50.7,87.7z"/>
		<path class="st3" d="M95.4,101.9L69,92.4h-8.6H60h-8.6L25,101.9c0,0-9.3,3-8.2,17.8H60h0.3h43.2C104.8,104,95.4,101.9,95.4,101.9z
			"/>
		<path class="st37" d="M95.4,101.9l-21.6-7.7l-13.6,9.5L46.9,94l-22,7.9c0,0-9.3,3-8.2,17.8h86.8C104.8,104,95.4,101.9,95.4,101.9z
			"/>
		<g class="st6">
			<path class="st7" d="M80.2,56.4c-0.6,3.9,0.5,7.3,2.4,7.7c2,0.4,4.1-2.5,4.7-6.4c0.6-3.9-0.5-7.3-2.4-7.7
				C82.9,49.7,80.8,52.6,80.2,56.4z"/>
			<g>
				<g>
					<path class="st8" d="M82.5,55.4c0,0,0-0.2,0.1-0.6c0.1-0.4,0.2-0.9,0.5-1.4c0.2-0.5,0.6-1.1,1.1-1.1c0.1,0,0.3,0,0.4,0.1
						c0,0,0.2,0.1,0.2,0.1c0,0,0.1,0.1,0.1,0.1c0.2,0.2,0.4,0.5,0.5,0.8c0.1,0.3,0.2,0.7,0.2,1.1c0,0.4,0.1,0.8,0,1.1
						c-0.1,0.4-0.1,0.8-0.1,1.1c-0.1,0.3-0.1,0.7-0.2,1c-0.1,0.3-0.1,0.6-0.2,0.8C85.1,58.8,85,59,85,59.2c-0.1,0.4-0.2,0.6-0.2,0.6
						s0.1-0.2,0.3-0.5c0.1-0.2,0.2-0.4,0.3-0.6c0.1-0.2,0.2-0.5,0.3-0.8c0.1-0.3,0.2-0.6,0.3-1c0.1-0.4,0.2-0.7,0.2-1.1
						c0.1-0.4,0.1-0.9,0-1.3c0-0.4-0.1-0.9-0.3-1.3c-0.1-0.4-0.4-0.8-0.7-1.1c-0.1-0.1-0.2-0.1-0.3-0.2c-0.1-0.1-0.1-0.1-0.3-0.1
						c-0.2,0-0.4-0.1-0.6,0c-0.4,0.1-0.7,0.4-1,0.7c-0.2,0.3-0.4,0.7-0.5,1c-0.2,0.6-0.2,1.2-0.3,1.6C82.5,55.2,82.5,55.4,82.5,55.4
						z"/>
				</g>
				<path class="st8" d="M82.5,55.4c0,0-0.2-0.4,1.1-0.5c0,0,1.4,0.3,0.6,2.2c-0.2,0.4-0.3,0.8-0.4,1.3c-0.1,0.6,0.1,1.5-0.2,2.1
					c-0.4,0.7-1.6,0.3-1.7-0.5c-0.1-0.7,0.6-1.8,0.9-2.2C82.8,57.7,83.8,56.3,82.5,55.4z"/>
				<g>
					<path class="st8" d="M81.9,59.9c0,0,0,0-0.1,0.1c-0.1,0.1-0.1,0.2-0.2,0.4c0,0.1,0,0.2-0.1,0.3c0,0.1,0,0.2,0,0.3
						c0,0.1,0,0.2,0,0.3c0,0.1,0.1,0.2,0.1,0.3c0,0.1,0.1,0.2,0.1,0.3c0.1,0.1,0.1,0.2,0.2,0.2c0.1,0.2,0.3,0.2,0.4,0.3
						c0.3,0.1,0.4,0.1,0.4,0.1s-0.1-0.2-0.2-0.5c0-0.1-0.1-0.1-0.1-0.2c0-0.1-0.1-0.1-0.1-0.2c0-0.1-0.1-0.1-0.1-0.2
						c0-0.1-0.1-0.1-0.1-0.2c-0.1-0.1-0.1-0.3-0.2-0.4c0-0.1,0-0.1-0.1-0.2c0-0.1,0-0.1,0-0.2C81.9,60.1,81.9,59.9,81.9,59.9z"/>
				</g>
			</g>
		</g>
		<g class="st6">
			<path class="st7" d="M40.5,56.4c0.6,3.9-0.5,7.3-2.4,7.7c-2,0.4-4.1-2.5-4.7-6.4c-0.6-3.9,0.5-7.3,2.4-7.7
				C37.8,49.7,39.9,52.6,40.5,56.4z"/>
			<g>
				<g>
					<path class="st8" d="M38.2,55.4c0,0,0-0.2-0.1-0.6c-0.1-0.4-0.2-0.9-0.5-1.4c-0.2-0.5-0.6-1.1-1.1-1.1c-0.1,0-0.3,0-0.4,0.1
						c0,0-0.2,0.1-0.2,0.1c0,0-0.1,0.1-0.1,0.1c-0.2,0.2-0.4,0.5-0.5,0.8c-0.1,0.3-0.2,0.7-0.2,1.1c0,0.4-0.1,0.8,0,1.1
						c0.1,0.4,0.1,0.8,0.1,1.1c0.1,0.3,0.1,0.7,0.2,1c0.1,0.3,0.1,0.6,0.2,0.8c0.1,0.3,0.1,0.5,0.2,0.6c0.1,0.4,0.2,0.6,0.2,0.6
						s-0.1-0.2-0.3-0.5c-0.1-0.2-0.2-0.4-0.3-0.6c-0.1-0.2-0.2-0.5-0.3-0.8c-0.1-0.3-0.2-0.6-0.3-1c-0.1-0.4-0.2-0.7-0.2-1.1
						c-0.1-0.4-0.1-0.9,0-1.3c0-0.4,0.1-0.9,0.3-1.3c0.1-0.4,0.4-0.8,0.7-1.1c0.1-0.1,0.2-0.1,0.3-0.2c0.1-0.1,0.1-0.1,0.3-0.1
						c0.2,0,0.4-0.1,0.6,0c0.4,0.1,0.7,0.4,1,0.7c0.2,0.3,0.4,0.7,0.5,1c0.2,0.6,0.2,1.2,0.3,1.6C38.2,55.2,38.2,55.4,38.2,55.4z"/>
				</g>
				<path class="st8" d="M38.2,55.4c0,0,0.2-0.4-1.1-0.5c0,0-1.4,0.3-0.6,2.2c0.2,0.4,0.3,0.8,0.4,1.3c0.1,0.6-0.1,1.5,0.2,2.1
					c0.5,0.7,1.6,0.3,1.7-0.5c0.1-0.7-0.6-1.8-0.9-2.2C37.9,57.7,36.9,56.3,38.2,55.4z"/>
				<g>
					<path class="st8" d="M38.8,59.9c0,0,0,0,0.1,0.1c0.1,0.1,0.1,0.2,0.2,0.4c0,0.1,0,0.2,0.1,0.3c0,0.1,0,0.2,0,0.3
						c0,0.1,0,0.2,0,0.3c0,0.1-0.1,0.2-0.1,0.3c0,0.1-0.1,0.2-0.1,0.3c-0.1,0.1-0.1,0.2-0.2,0.2c-0.1,0.2-0.3,0.2-0.4,0.3
						c-0.3,0.1-0.4,0.1-0.4,0.1s0.1-0.2,0.2-0.5c0-0.1,0.1-0.1,0.1-0.2c0-0.1,0.1-0.1,0.1-0.2c0-0.1,0.1-0.1,0.1-0.2
						c0-0.1,0.1-0.1,0.1-0.2c0.1-0.1,0.1-0.3,0.2-0.4c0-0.1,0-0.1,0.1-0.2c0-0.1,0-0.1,0-0.2C38.8,60.1,38.8,59.9,38.8,59.9z"/>
				</g>
			</g>
		</g>
		<path class="st3" d="M60.6,14.5L60.6,14.5c-0.1,0-0.2,0-0.3,0c-0.1,0-0.2,0-0.3,0v0c-15.7,0.1-24.5,4.6-22,33.1l2.7,22.7
			c0,0,0.5,4.1,5,6.6l8.5,6.3c0,0,4,1.8,6.1,1.6c2.1,0.2,6.1-1.6,6.1-1.6l8.5-6.3c4.5-2.5,5-6.6,5-6.6l2.8-22.2
			C85.2,19.7,76.2,14.7,60.6,14.5z"/>
		<path class="st38" d="M79,56.4c-0.6,2.4-0.9,6.3-2.5,8.4c-1.1,1.5-2.7,2.2-4.6,2.3c-1.3,0.1-2.5,0-3.7-0.3c-1-0.2-1.9-0.6-2.9-0.7
			c-1.1,0-1.9,0.4-2.8,0.9c-1.2,0.6-2.2,0.6-3.5,0.2c-1.8-0.6-3.5-1.3-5.5-1.2c-2.2,0.1-4.6,0.7-6.7,0c-2.3-0.7-3.4-2.7-4.3-4.7
			c-0.5-1.1-0.8-3.8-1.2-4.9C40.9,55,40.2,56,38.9,56l1.7,16c0,0,0.5,4.1,5,6.6l8.5,6.3c0,0,4,1.8,6.1,1.6c2.1,0.2,6.1-1.6,6.1-1.6
			l8.5-6.3c4.5-2.5,5-6.6,5-6.6l1.9-16.3C80.3,55.7,79.4,54.8,79,56.4z"/>
		<path class="st9" d="M48.7,49.5c0,1.5,0.8,2.7,1.9,2.7c1,0,1.8-1.2,1.8-2.7c0-1.5-0.8-2.7-1.9-2.7C49.6,46.8,48.7,48.1,48.7,49.5z
			"/>
		<path class="st10" d="M49.9,48.7c0,0.4-0.4,0.8-0.8,0.8c-0.4,0-0.8-0.4-0.8-0.8c0-0.4,0.4-0.8,0.8-0.8
			C49.5,47.9,49.9,48.2,49.9,48.7z"/>
		<path class="st9" d="M72,49.5c0,1.5-0.8,2.7-1.9,2.7c-1,0-1.8-1.2-1.8-2.7c0-1.5,0.8-2.7,1.9-2.7C71.1,46.8,72,48.1,72,49.5z"/>
		<path class="st10" d="M70.8,48.7c0,0.4,0.4,0.8,0.8,0.8c0.4,0,0.8-0.4,0.8-0.8c0-0.4-0.4-0.8-0.8-0.8
			C71.2,47.9,70.8,48.2,70.8,48.7z"/>
		<g class="st6">
			<g>
				<path class="st11" d="M63.1,64c-0.4,0.4-0.9,0.7-1.5,1c-0.5,0.2-1.1,0.4-1.8,0.5c-0.3,0-0.6,0-1,0c-0.3,0-0.6,0-1-0.1
					c-0.3-0.1-0.6-0.2-0.9-0.3c-0.3-0.1-0.6-0.3-0.9-0.4l-0.4-0.2l-0.1-0.6c0-0.3-0.1-0.5-0.1-0.8c0-0.3,0-0.5,0-0.8
					c0-0.5,0.1-1,0.2-1.5c0.1-0.5,0.3-1,0.5-1.4c0.2-0.5,0.5-0.9,0.9-1.3c0.2,0.5,0.3,1,0.4,1.5c0.1,0.5,0.1,1,0.2,1.4
					c0,0.5,0,0.9,0,1.4l0,0.7c0,0.2,0,0.5-0.1,0.7L57.2,63c0.2,0.1,0.4,0.3,0.6,0.4c0.2,0.1,0.4,0.2,0.6,0.3
					c0.2,0.1,0.4,0.2,0.7,0.3c0.2,0,0.5,0.1,0.7,0.2c0.3,0.1,0.5,0.1,0.8,0.1c0.3,0,0.5,0,0.8,0C61.9,64.2,62.5,64.1,63.1,64z"/>
			</g>
		</g>
		<path class="st38" d="M54.4,44.1c-0.2,0.7-0.8,1.1-1.5,1c-2.6-0.5-5.1-0.2-7.4,0.6c-0.6,0.2-1.3-0.1-1.6-0.7l0,0
			c-0.3-0.6-0.1-1.4,0.6-1.7c2.7-1,5.8-1.3,8.8-0.8C54.1,42.6,54.6,43.4,54.4,44.1L54.4,44.1z"/>
		<path class="st38" d="M65.5,44.1c0.2,0.7,0.8,1.1,1.5,1c2.6-0.5,5.1-0.2,7.4,0.6c0.6,0.2,1.3-0.1,1.6-0.7l0,0
			c0.3-0.6,0.1-1.4-0.6-1.7c-2.7-1-5.8-1.3-8.8-0.8C65.9,42.6,65.4,43.4,65.5,44.1L65.5,44.1z"/>
		<path class="st15" d="M61.1,74c0,0-0.9,0.3-2.2,0"/>
		<path class="st10" d="M55,69.4l1.3,2.5c0,0,5.7,3.2,9.8-2.4C66.1,69.6,59.8,69.9,55,69.4z"/>
		<path class="st38" d="M49.2,21.1c0,0,5.8,7.1,19.1,8.9c0,0,13.4,4.6,13.2,12.2L79.1,56l2.7-0.3c0,0,0.1-5.5,3-5.6
			c0,0,2.7-11.1,2.6-13c0-1.9-3.7-20.7-3.7-20.7L69.3,6.1c0,0-15.6-2.3-22.8-5.7c0,0,1.6,4.4,4.1,5.7c0,0-9,1-9.9,0.8
			c-0.8-0.2,1.2,4.8,1.2,4.8l-7.6,11.6l1.5,26.9c0,0,2.3,0.2,3.1,5.9h2.2l-0.4-17.3C40.7,38.7,43.8,28,49.2,21.1z"/>
		<path class="st39" d="M48.6,20.5c-2.5-2.6-5.1-5.5-6.7-8.8l-7.5,11.5l0,0.1c2.5,4,4.9,7.9,7.6,11.8c1.4-3.7,3.9-9.6,7.3-14
			c0,0,0.8,0.9,2.4,2.2C50.5,22.4,49.6,21.4,48.6,20.5z"/>
		<polygon class="st36" points="60.2,103.6 58.4,94.5 49,88.7 47.6,94.5 		"/>
		<polygon class="st36" points="60.2,103.6 62,94.5 71.4,88.7 72.8,94.5 		"/>
		<g class="st6">
			<path class="st27" d="M64.7,95.7h-4.2h-0.6h-4.2c0,0-2,1.2-1.2,3.3l2.9,4.5h2.2h1.3H63l2.9-4.5C66.7,96.9,64.7,95.7,64.7,95.7z"
				/>
			<path class="st27" d="M65.3,96.2c0.2,0.8,0.1,1.7-0.2,2.7c-0.6,1.9-2,3.3-4,3.7c-1.8,0.3-3.6-0.5-4.1-2.3
				c-0.5-1.6-0.7-3.4,0.3-4.6h-1.6c0,0-2,1.2-1.2,3.3l2.9,4.5H63l2.9-4.5C66.4,97.7,65.8,96.8,65.3,96.2z"/>
			<polygon class="st27" points="57.4,103.6 54.3,119.7 66.1,119.7 63,103.6 			"/>
		</g>
		<polygon class="st40" points="58.4,94.5 53.9,102.6 43,95.2 49,88.7 		"/>
		<polygon class="st40" points="62,94.5 66.4,102.6 77.3,95.2 71.4,88.7 		"/>
	</g>
	<g class="st1">
		<rect x="34.5" y="48.8" class="st41" width="46.7" height="51.3"/>
		<rect x="49.7" y="85.1" class="st2" width="19.3" height="7.1"/>
		<path class="st3" d="M67.1,75.2h-6.7h-8.4c0,0,0.4,11.5-1.5,14.8h9.1h9.1C66.9,86.7,67.1,75.2,67.1,75.2z"/>
		<path class="st4" d="M52,82.2c2.8,1.3,5.6,2.6,8.8,2.3c2.3-0.2,4.5-0.9,6.5-1.9c-0.3-3.8-0.2-7.4-0.2-7.4h-15
			C52.1,75.2,52.2,78.6,52,82.2z"/>
		<g class="st6">
			<path class="st7" d="M87.6,96.5l-20.9-8.2h-6.8h-0.2h-6.8l-20.9,8.2c0,0-7.3,2.6-6.5,15.4h34.2h0.2h34.2
				C95,98.4,87.6,96.5,87.6,96.5z"/>
		</g>
		<g class="st6">
			<g>
				<path class="st7" d="M78.6,53.3c-0.6,3.8,0.5,7.2,2.4,7.6c1.9,0.4,4-2.4,4.6-6.3c0.6-3.8-0.5-7.2-2.4-7.6
					C81.3,46.7,79.2,49.5,78.6,53.3z"/>
				<g>
					<g>
						<path class="st8" d="M80.9,52.3c0,0,0-0.2,0.1-0.6c0.1-0.4,0.2-0.8,0.5-1.4c0.2-0.5,0.6-1.1,1.1-1.1c0.1,0,0.2,0,0.4,0.1
							c0,0,0.1,0.1,0.2,0.1c0,0,0.1,0.1,0.1,0.1c0.2,0.2,0.4,0.5,0.5,0.8c0.1,0.3,0.2,0.7,0.2,1.1c0,0.4,0.1,0.8,0,1.1
							c-0.1,0.4-0.1,0.8-0.1,1.1c-0.1,0.3-0.1,0.7-0.2,1c-0.1,0.3-0.1,0.6-0.2,0.8c-0.1,0.2-0.1,0.5-0.2,0.6
							c-0.1,0.3-0.1,0.6-0.1,0.6s0.1-0.2,0.3-0.5c0.1-0.2,0.2-0.4,0.3-0.6c0.1-0.2,0.2-0.5,0.3-0.8c0.1-0.3,0.2-0.6,0.3-1
							c0.1-0.4,0.2-0.7,0.2-1.1c0.1-0.4,0.1-0.9,0-1.3c0-0.4-0.1-0.9-0.2-1.3c-0.1-0.4-0.4-0.8-0.7-1.1c-0.1-0.1-0.2-0.1-0.3-0.2
							c-0.1-0.1-0.1-0.1-0.3-0.1c-0.2,0-0.4-0.1-0.6,0c-0.4,0.1-0.7,0.4-1,0.7c-0.2,0.3-0.4,0.6-0.5,1c-0.2,0.6-0.2,1.2-0.3,1.5
							C80.9,52.1,80.9,52.3,80.9,52.3z"/>
					</g>
					<path class="st8" d="M80.9,52.3c0,0-0.2-0.4,1.1-0.5c0,0,1.4,0.3,0.6,2.2c-0.2,0.4-0.3,0.8-0.4,1.3c-0.1,0.6,0.1,1.5-0.2,2.1
						c-0.4,0.7-1.6,0.3-1.6-0.5c-0.1-0.6,0.6-1.7,0.9-2.2C81.2,54.6,82.1,53.2,80.9,52.3z"/>
					<g>
						<path class="st8" d="M80.3,56.7c0,0,0,0-0.1,0.1c-0.1,0.1-0.1,0.2-0.2,0.4c0,0.1,0,0.2-0.1,0.3c0,0.1,0,0.2,0,0.3
							c0,0.1,0,0.2,0,0.3c0,0.1,0.1,0.2,0.1,0.3c0,0.1,0.1,0.2,0.1,0.3c0.1,0.1,0.1,0.2,0.2,0.2c0.1,0.2,0.3,0.2,0.4,0.3
							c0.3,0.1,0.4,0.1,0.4,0.1S81.2,59,81,58.8c0-0.1-0.1-0.1-0.1-0.2c0-0.1-0.1-0.1-0.1-0.2c0-0.1-0.1-0.1-0.1-0.2
							c0-0.1-0.1-0.1-0.1-0.2c-0.1-0.1-0.1-0.3-0.2-0.4c0-0.1,0-0.1-0.1-0.2c0-0.1,0-0.1,0-0.2C80.3,56.9,80.3,56.7,80.3,56.7z"/>
					</g>
				</g>
			</g>
		</g>
		<g class="st6">
			<g>
				<path class="st7" d="M41.7,53.3c0.6,3.8-0.5,7.2-2.4,7.6c-1.9,0.4-4-2.4-4.6-6.3c-0.6-3.8,0.5-7.2,2.4-7.6
					C39,46.7,41.1,49.5,41.7,53.3z"/>
				<g>
					<g>
						<path class="st8" d="M39.4,52.3c0,0,0-0.2-0.1-0.6c-0.1-0.4-0.2-0.8-0.5-1.4c-0.2-0.5-0.6-1.1-1.1-1.1c-0.1,0-0.2,0-0.4,0.1
							c0,0-0.1,0.1-0.2,0.1c0,0-0.1,0.1-0.1,0.1c-0.2,0.2-0.4,0.5-0.5,0.8c-0.1,0.3-0.2,0.7-0.2,1.1c0,0.4-0.1,0.8,0,1.1
							c0.1,0.4,0.1,0.8,0.1,1.1c0.1,0.3,0.1,0.7,0.2,1c0.1,0.3,0.1,0.6,0.2,0.8c0.1,0.2,0.1,0.5,0.2,0.6c0.1,0.3,0.1,0.6,0.1,0.6
							s-0.1-0.2-0.3-0.5c-0.1-0.2-0.2-0.4-0.3-0.6c-0.1-0.2-0.2-0.5-0.3-0.8c-0.1-0.3-0.2-0.6-0.3-1c-0.1-0.4-0.2-0.7-0.2-1.1
							c-0.1-0.4-0.1-0.9,0-1.3c0-0.4,0.1-0.9,0.2-1.3c0.1-0.4,0.4-0.8,0.7-1.1c0.1-0.1,0.2-0.1,0.3-0.2c0.1-0.1,0.1-0.1,0.3-0.1
							c0.2,0,0.4-0.1,0.6,0c0.4,0.1,0.7,0.4,1,0.7c0.2,0.3,0.4,0.6,0.5,1c0.2,0.6,0.2,1.2,0.3,1.5C39.4,52.1,39.4,52.3,39.4,52.3z"
							/>
					</g>
					<path class="st8" d="M39.4,52.3c0,0,0.2-0.4-1.1-0.5c0,0-1.4,0.3-0.6,2.2c0.2,0.4,0.3,0.8,0.4,1.3c0.1,0.6-0.1,1.5,0.2,2.1
						c0.4,0.7,1.6,0.3,1.6-0.5c0.1-0.6-0.6-1.7-0.9-2.2C39.1,54.6,38.2,53.2,39.4,52.3z"/>
					<g>
						<path class="st8" d="M40,56.7c0,0,0,0,0.1,0.1c0.1,0.1,0.1,0.2,0.2,0.4c0,0.1,0,0.2,0.1,0.3c0,0.1,0,0.2,0,0.3
							c0,0.1,0,0.2,0,0.3c0,0.1-0.1,0.2-0.1,0.3c0,0.1-0.1,0.2-0.1,0.3c-0.1,0.1-0.1,0.2-0.2,0.2c-0.1,0.2-0.3,0.2-0.4,0.3
							c-0.3,0.1-0.4,0.1-0.4,0.1s0.1-0.2,0.2-0.5c0-0.1,0.1-0.1,0.1-0.2c0-0.1,0.1-0.1,0.1-0.2c0-0.1,0.1-0.1,0.1-0.2
							c0-0.1,0.1-0.1,0.1-0.2c0.1-0.1,0.1-0.3,0.2-0.4c0-0.1,0-0.1,0.1-0.2c0-0.1,0-0.1,0-0.2C40,56.9,40,56.7,40,56.7z"/>
					</g>
				</g>
			</g>
		</g>
		<g class="st6">
			<path class="st7" d="M79.2,22.3c0,0-6.6-7.2-19.6-7.6c-13,0.7-19.5,8.2-19.5,8.2c-3.5,11.4-1.3,24.7,0.2,36.2
				c1.1,8.5,6.8,14.5,14.1,18.6c0,0,2.6,1.7,5.9,1.8c3.4-0.3,5.9-2,5.9-2c7-4.8,12.4-10.6,13.7-19.3c1.2-7.5,1.4-15.7,1.2-23.3
				C81,30.8,80.5,26.2,79.2,22.3z"/>
		</g>
		<g class="st6">
			<g>
				<path class="st42" d="M54,45.5c0,0-4.6-1.6-9.4,0.6c0.9-5.1,9.8-3,9.8-3s0.6,0.1,0.5,1.1C54.9,44.2,54.7,45.8,54,45.5z"/>
			</g>
			<g>
				<path class="st42" d="M64.8,45.5c0,0,5.3-1.6,10.1,0.6c-0.9-5.1-10.4-3-10.4-3s-0.6,0.1-0.5,1.1C63.9,44.2,64.1,45.8,64.8,45.5z
					"/>
			</g>
		</g>
		<g class="st6">
			<g>
				<g>
					<path class="st19" d="M48.1,50.3c0,1.5,0.8,2.7,1.9,2.7c1,0,1.8-1.2,1.8-2.7c0-1.5-0.8-2.7-1.9-2.7
						C48.9,47.6,48.1,48.8,48.1,50.3z"/>
				</g>
				<g>
					<path class="st20" d="M49.2,49.4c0,0.4-0.4,0.8-0.8,0.8c-0.4,0-0.8-0.4-0.8-0.8c0-0.4,0.4-0.8,0.8-0.8
						C48.9,48.6,49.2,49,49.2,49.4z"/>
				</g>
			</g>
			<g>
				<g>
					<path class="st19" d="M71.3,50.3c0,1.5-0.8,2.7-1.9,2.7c-1,0-1.8-1.2-1.8-2.7c0-1.5,0.8-2.7,1.9-2.7
						C70.5,47.6,71.3,48.8,71.3,50.3z"/>
				</g>
				<g>
					<path class="st20" d="M70.2,49.4c0,0.4,0.4,0.8,0.8,0.8c0.4,0,0.8-0.4,0.8-0.8c0-0.4-0.4-0.8-0.8-0.8
						C70.6,48.6,70.2,49,70.2,49.4z"/>
				</g>
			</g>
		</g>
		<g class="st6">
			<g>
				<path class="st20" d="M55.1,67c0,1.4,2,2.6,4.5,2.6c2.5,0,4.5-1.2,4.5-2.6H55.1z"/>
				<g>
					<path class="st21" d="M64,67.4c1.1-0.3,1.5-0.5,1.5-0.5s-0.7-0.3-1.8-0.6c-2.7-1.1-2.5,0.3-3.9,0.3c-0.7,0-1.4-0.8-2.1-0.7
						c-0.7,0.1-1.3,0.2-1.8,0.3c-1.1,0.3-1.8,0.6-1.8,0.6s0.5,0.4,1.6,0.6c0,0,1.6-0.1,2.9,0.1c0,0,1.2,0.3,2,0.1
						C60.6,67.7,62.5,67.3,64,67.4"/>
				</g>
				<g>
					<path class="st21" d="M64.5,66.9c-1,1.1-2.7,2.1-5.2,2.1c0,0-2.4,0-4.4-2.1H54c0,0.1,0.1,0.1,0.1,0.2c0.2,0.4,0.4,0.9,0.8,1.3
						c0.2,0.2,0.3,0.5,0.5,0.7c0.2,0.2,0.4,0.4,0.6,0.6l0.3,0.3l0.4,0.3c0.3,0.2,0.5,0.4,0.9,0.5c0.3,0.1,0.7,0.3,1,0.3l0.4,0.1
						l0.2,0l0.1,0l0.1,0l0.2,0l1.1-0.1c0.3-0.1,0.7-0.2,1-0.3c0.3-0.1,0.6-0.3,0.9-0.5l0.4-0.3l0.3-0.3c0.2-0.2,0.5-0.4,0.6-0.6
						c0.2-0.2,0.3-0.5,0.5-0.7c0.3-0.4,0.5-0.9,0.8-1.3c0-0.1,0.1-0.1,0.1-0.2H64.5z"/>
				</g>
			</g>
			<path class="st20" d="M59.7,70.3c3.7-0.3,4.4-2.4,4.4-2.4c-1.7,2.1-4.4,1.8-4.4,1.8s-0.2,0-0.2,0.3C59.4,70,59.5,70.3,59.7,70.3z
				"/>
		</g>
		<path class="st43" d="M50,13.1C55.9,8.9,66.3,11,66.3,11c22.7,4.1,22,25.4,22,25.4l4.4,65.2c-2.1-4.2-4.3-4.7-4.3-4.7l-11.8-4.6
			V38.1c-19,0-23.3-10.5-23.3-10.5L50,13.1z"/>
		<path class="st43" d="M54,27.5c0,0-9.4,2.1-10.8,12l-0.7,52.9l-11.4,4.5c0,0-3.6,1.9-4.9,6.6l5.9-64c0,0,0.9-22.1,17.8-26.4
			L54,27.5z"/>
		<path class="st22" d="M57.1,60.4C57.1,60.4,57.1,60.4,57.1,60.4c0.2,0,0.3-0.1,0.4-0.1c0.2,0,0.5-0.1,0.8-0.2c0.3,0,0.6-0.1,1-0.1
			c0.3,0,0.7,0,1,0c0.3,0,0.6,0,0.9,0.1c0.2,0,0.3,0,0.5,0.1c0.2,0,0.3,0,0.5,0.1c0.1,0,0.3,0.1,0.4,0.1c0.1,0,0.3,0,0.4,0
			c0.1,0,0.2,0,0.3,0.1c0.1,0,0.1,0,0.1,0s0,0,0,0.1c0,0.1,0,0.2-0.1,0.3c-0.1,0.2-0.2,0.5-0.5,0.8c-0.1,0.1-0.3,0.3-0.5,0.4
			c-0.2,0.1-0.4,0.3-0.6,0.3c-0.2,0.1-0.5,0.2-0.7,0.2c-0.2,0.1-0.5,0.1-0.7,0.1c-0.3,0-0.5,0-0.7-0.1c-0.2-0.1-0.5-0.1-0.7-0.2
			c-0.4-0.2-0.8-0.4-1-0.7c-0.3-0.3-0.4-0.5-0.5-0.8C57.2,60.7,57.2,60.6,57.1,60.4C57.1,60.4,57.1,60.4,57.1,60.4z"/>
		<polygon class="st3" points="51.8,22.3 52.2,29.6 54,29 		"/>
		<g class="st6">
			<g>
				<path class="st44" d="M68.8,89.2l18.8,7.3c0,0,7.5,1.8,6.5,15.4H59.8h-0.2H25.4c-0.9-12.7,6.5-15.4,6.5-15.4L51,89l8.4,8.8
					L68.8,89.2z"/>
			</g>
		</g>
		<g class="st6">
			<polygon class="st13" points="59.4,97.8 57.9,90 49.7,85.1 48.6,90 			"/>
			<polygon class="st14" points="57.9,90 54,97 44.6,90.6 49.7,85.1 			"/>
		</g>
		<g class="st6">
			<polygon class="st13" points="59.4,97.8 60.9,90 69.1,85.1 70.3,90 			"/>
			<polygon class="st14" points="60.9,90 64.8,97 74.2,90.6 69.1,85.1 			"/>
		</g>
		<polygon class="st45" points="57.5,96.5 59.4,97.8 61.3,96.5 61.3,111.9 57.5,111.9 		"/>
		<path class="st32" d="M60.6,101.3c0,0.6-0.5,1.2-1.2,1.2c-0.6,0-1.2-0.5-1.2-1.2c0-0.6,0.5-1.2,1.2-1.2
			C60,100.1,60.6,100.7,60.6,101.3z"/>
		<path class="st32" d="M60.6,110.8c0,0.6-0.5,1.2-1.2,1.2c-0.6,0-1.2-0.5-1.2-1.2c0-0.6,0.5-1.2,1.2-1.2
			C60.1,109.6,60.6,110.1,60.6,110.8z"/>
	</g>
	<g>
		<g>
			<rect x="48.5" y="89.1" class="st13" width="22.4" height="8.3"/>
			<path class="st7" d="M68.7,79.3h-8.1H50.5c0,0,0.5,11.5-1.8,14.8h11h11C68.5,90.9,68.7,79.3,68.7,79.3z"/>
			<path class="st46" d="M50.3,88c2.6,1.7,6.5,2.5,9.6,2.5c3.4,0,6.4-0.9,9.3-2.1c-0.5-4.3-0.4-9.2-0.4-9.2H50.5
				C50.5,79.3,50.7,83.9,50.3,88z"/>
			<g>
				<path class="st7" d="M94.9,102.2l-26.4-9.5h-8.6h-0.3h-8.6l-26.4,9.5c0,0-9.3,3-8.2,17.8h43.2h0.3h43.2
					C104.4,104.3,94.9,102.2,94.9,102.2z"/>
			</g>
			<g>
				<path class="st47" d="M94.9,102.2l-21.6-7.7l-13.6,9.5l-13.3-9.6l-22,7.9c0,0-9.3,3-8.2,17.8h86.8
					C104.4,104.3,94.9,102.2,94.9,102.2z"/>
			</g>
			<g>
				<polygon class="st13" points="59.7,103.9 57.9,94.8 48.5,89.1 47.1,94.8 				"/>
				<polygon class="st14" points="57.9,94.8 53.5,103 42.6,95.6 48.5,89.1 				"/>
			</g>
			<g>
				<polygon class="st13" points="59.7,103.9 61.5,94.8 70.9,89.1 72.3,94.8 				"/>
				<polygon class="st14" points="61.5,94.8 66,103 76.9,95.6 70.9,89.1 				"/>
			</g>
		</g>
		<g>
			<g>
				<g>
					<path class="st7" d="M79.7,57.8c-0.6,3.9,0.5,7.3,2.4,7.7c2,0.4,4.1-2.5,4.7-6.4c0.6-3.9-0.5-7.3-2.4-7.7
						C82.4,51,80.3,53.9,79.7,57.8z"/>
					<g>
						<g>
							<path class="st8" d="M82.1,56.7c0,0,0-0.2,0.1-0.6c0.1-0.4,0.2-0.9,0.5-1.4c0.2-0.5,0.6-1.1,1.1-1.1c0.1,0,0.3,0,0.4,0.1
								c0,0,0.2,0.1,0.2,0.1c0,0,0.1,0.1,0.1,0.1c0.2,0.2,0.4,0.5,0.5,0.8c0.1,0.3,0.2,0.7,0.2,1.1c0,0.4,0.1,0.8,0,1.1
								c-0.1,0.4-0.1,0.8-0.1,1.1c-0.1,0.3-0.1,0.7-0.2,1c-0.1,0.3-0.1,0.6-0.2,0.8c-0.1,0.3-0.1,0.5-0.2,0.6
								c-0.1,0.4-0.2,0.6-0.2,0.6s0.1-0.2,0.3-0.5c0.1-0.2,0.2-0.4,0.3-0.6c0.1-0.2,0.2-0.5,0.3-0.8c0.1-0.3,0.2-0.6,0.3-1
								c0.1-0.4,0.2-0.7,0.2-1.1c0.1-0.4,0.1-0.9,0-1.3c0-0.4-0.1-0.9-0.3-1.3c-0.1-0.4-0.4-0.8-0.7-1.1c-0.1-0.1-0.2-0.1-0.3-0.2
								c-0.1-0.1-0.1-0.1-0.3-0.1c-0.2,0-0.4-0.1-0.6,0c-0.4,0.1-0.7,0.4-1,0.7c-0.2,0.3-0.4,0.7-0.5,1c-0.2,0.6-0.2,1.2-0.3,1.6
								C82,56.5,82.1,56.7,82.1,56.7z"/>
						</g>
						<path class="st8" d="M82.1,56.7c0,0-0.2-0.4,1.1-0.5c0,0,1.4,0.3,0.6,2.2c-0.2,0.4-0.3,0.8-0.4,1.3c-0.1,0.6,0.1,1.5-0.2,2.1
							c-0.4,0.7-1.6,0.3-1.7-0.5c-0.1-0.7,0.6-1.8,0.9-2.2C82.4,59,83.3,57.6,82.1,56.7z"/>
						<g>
							<path class="st8" d="M81.4,61.2c0,0,0,0-0.1,0.1c-0.1,0.1-0.1,0.2-0.2,0.4c0,0.1,0,0.2-0.1,0.3c0,0.1,0,0.2,0,0.3
								c0,0.1,0,0.2,0,0.3c0,0.1,0.1,0.2,0.1,0.3c0,0.1,0.1,0.2,0.1,0.3c0.1,0.1,0.1,0.2,0.2,0.2c0.1,0.2,0.3,0.2,0.4,0.3
								c0.3,0.1,0.4,0.1,0.4,0.1s-0.1-0.2-0.2-0.5c0-0.1-0.1-0.1-0.1-0.2C82,63.1,82,63,82,63c0-0.1-0.1-0.1-0.1-0.2
								c0-0.1-0.1-0.1-0.1-0.2c-0.1-0.1-0.1-0.3-0.2-0.4c0-0.1,0-0.1-0.1-0.2c0-0.1,0-0.1,0-0.2C81.5,61.4,81.4,61.2,81.4,61.2z"/>
						</g>
					</g>
				</g>
			</g>
			<g>
				<g>
					<path class="st7" d="M40.1,57.8c0.6,3.9-0.5,7.3-2.4,7.7c-2,0.4-4.1-2.5-4.7-6.4c-0.6-3.9,0.5-7.3,2.4-7.7
						C37.3,51,39.4,53.9,40.1,57.8z"/>
					<g>
						<g>
							<path class="st8" d="M37.7,56.7c0,0,0-0.2-0.1-0.6c-0.1-0.4-0.2-0.9-0.5-1.4c-0.2-0.5-0.6-1.1-1.1-1.1c-0.1,0-0.3,0-0.4,0.1
								c0,0-0.2,0.1-0.2,0.1c0,0-0.1,0.1-0.1,0.1c-0.2,0.2-0.4,0.5-0.5,0.8c-0.1,0.3-0.2,0.7-0.2,1.1c0,0.4-0.1,0.8,0,1.1
								c0.1,0.4,0.1,0.8,0.1,1.1c0.1,0.3,0.1,0.7,0.2,1c0.1,0.3,0.1,0.6,0.2,0.8c0.1,0.3,0.1,0.5,0.2,0.6c0.1,0.4,0.2,0.6,0.2,0.6
								s-0.1-0.2-0.3-0.5c-0.1-0.2-0.2-0.4-0.3-0.6c-0.1-0.2-0.2-0.5-0.3-0.8c-0.1-0.3-0.2-0.6-0.3-1c-0.1-0.4-0.2-0.7-0.2-1.1
								c-0.1-0.4-0.1-0.9,0-1.3c0-0.4,0.1-0.9,0.3-1.3c0.1-0.4,0.4-0.8,0.7-1.1c0.1-0.1,0.2-0.1,0.3-0.2c0.1-0.1,0.1-0.1,0.3-0.1
								c0.2,0,0.4-0.1,0.6,0c0.4,0.1,0.7,0.4,1,0.7c0.2,0.3,0.4,0.7,0.5,1c0.2,0.6,0.2,1.2,0.3,1.6C37.7,56.5,37.7,56.7,37.7,56.7z"
								/>
						</g>
						<path class="st8" d="M37.7,56.7c0,0,0.2-0.4-1.1-0.5c0,0-1.4,0.3-0.6,2.2c0.2,0.4,0.3,0.8,0.4,1.3c0.1,0.6-0.1,1.5,0.2,2.1
							c0.4,0.7,1.6,0.3,1.7-0.5c0.1-0.7-0.6-1.8-0.9-2.2C37.4,59,36.5,57.6,37.7,56.7z"/>
						<g>
							<path class="st8" d="M38.3,61.2c0,0,0,0,0.1,0.1c0.1,0.1,0.1,0.2,0.2,0.4c0,0.1,0,0.2,0.1,0.3c0,0.1,0,0.2,0,0.3
								c0,0.1,0,0.2,0,0.3c0,0.1-0.1,0.2-0.1,0.3c0,0.1-0.1,0.2-0.1,0.3c-0.1,0.1-0.1,0.2-0.2,0.2c-0.1,0.2-0.3,0.2-0.4,0.3
								c-0.3,0.1-0.4,0.1-0.4,0.1s0.1-0.2,0.2-0.5c0-0.1,0.1-0.1,0.1-0.2c0-0.1,0.1-0.1,0.1-0.2c0-0.1,0.1-0.1,0.1-0.2
								c0-0.1,0.1-0.1,0.1-0.2c0.1-0.1,0.1-0.3,0.2-0.4c0-0.1,0-0.1,0.1-0.2c0-0.1,0-0.1,0-0.2C38.3,61.4,38.3,61.2,38.3,61.2z"/>
						</g>
					</g>
				</g>
			</g>
		</g>
		<path class="st7" d="M60.1,15.9L60.1,15.9c-0.1,0-0.2,0-0.3,0c-0.1,0-0.2,0-0.3,0v0C43.8,16,35,20.4,37.4,49l2.7,22.7
			c0,0,0.5,4.1,5,6.6l8.5,6.3c0,0,4,1.8,6.1,1.6c2.1,0.2,6.1-1.6,6.1-1.6l8.5-6.3c4.5-2.5,5-6.6,5-6.6l2.8-22.2
			C84.7,21,75.8,16,60.1,15.9z"/>
		<g>
			<g>
				<g>
					<path class="st19" d="M48.3,50.9c0,1.5,0.8,2.7,1.9,2.7c1,0,1.8-1.2,1.8-2.7c0-1.5-0.8-2.7-1.9-2.7
						C49.1,48.2,48.3,49.4,48.3,50.9z"/>
				</g>
				<g>
					<path class="st20" d="M49.4,50c0,0.4-0.4,0.8-0.8,0.8c-0.4,0-0.8-0.4-0.8-0.8c0-0.4,0.4-0.8,0.8-0.8C49,49.2,49.4,49.6,49.4,50
						z"/>
				</g>
			</g>
			<g>
				<g>
					<path class="st19" d="M71.5,50.9c0,1.5-0.8,2.7-1.9,2.7c-1,0-1.8-1.2-1.8-2.7c0-1.5,0.8-2.7,1.9-2.7
						C70.7,48.2,71.5,49.4,71.5,50.9z"/>
				</g>
				<g>
					<path class="st20" d="M70.4,50c0,0.4,0.4,0.8,0.8,0.8c0.4,0,0.8-0.4,0.8-0.8c0-0.4-0.4-0.8-0.8-0.8
						C70.7,49.2,70.4,49.6,70.4,50z"/>
				</g>
			</g>
		</g>
		<g>
			<g>
				<path class="st11" d="M63.3,65.9c-0.4,0.5-0.9,0.9-1.4,1.2c-0.3,0.1-0.6,0.3-0.9,0.4c-0.3,0.1-0.6,0.2-0.9,0.2
					c-0.6,0.1-1.3,0-2-0.1c-0.3-0.1-0.6-0.2-0.9-0.3c-0.3-0.1-0.6-0.3-0.9-0.5l-0.6-0.4l0.2-0.8c0.4-1.6,0.8-3.1,1.3-4.7
					c0.1-0.4,0.3-0.8,0.4-1.2c0.1-0.4,0.3-0.8,0.4-1.2c0.3-0.8,0.6-1.5,1-2.3c0,0.8,0,1.7,0,2.5c0,0.4-0.1,0.8-0.1,1.2
					c0,0.4-0.1,0.8-0.1,1.2c-0.2,1.6-0.4,3.2-0.7,4.8l-0.5-1.1c0.2,0.1,0.4,0.2,0.6,0.3c0.2,0.1,0.4,0.2,0.6,0.3
					c0.2,0.1,0.4,0.1,0.7,0.2c0.2,0,0.5,0.1,0.7,0.1c0.2,0.1,0.5,0.1,0.7,0.1c0.3,0,0.5,0,0.8,0c0.3,0,0.5,0,0.8,0
					C62.7,65.9,63,65.9,63.3,65.9z"/>
			</g>
		</g>
		<path class="st48" d="M54,45.4c-0.2,0.7-0.8,1.1-1.5,1c-2.6-0.5-5.1-0.2-7.4,0.6c-0.6,0.2-1.3-0.1-1.6-0.7l0,0
			c-0.3-0.6-0.1-1.4,0.6-1.7c2.7-1,5.8-1.3,8.8-0.8C53.7,44,54.1,44.7,54,45.4L54,45.4z"/>
		<path class="st48" d="M65.1,45.4c0.2,0.7,0.8,1.1,1.5,1c2.6-0.5,5.1-0.2,7.4,0.6c0.6,0.2,1.3-0.1,1.6-0.7l0,0
			c0.3-0.6,0.1-1.4-0.6-1.7c-2.7-1-5.8-1.3-8.8-0.8C65.4,44,64.9,44.7,65.1,45.4L65.1,45.4z"/>
		<path class="st48" d="M80.8,55.7c-0.7-1.5-0.2-3.9-0.6-5.6c-0.4-2.1-1.3-3.9-2-6c-1.5-4.9,2.2-11-2.7-14.6
			c-2.4-1.8-8.1,0.2-14.2,0.6c-7.7,0.5-11.4-4-14.8-2.4c-2.3,1.1-2.6,1.7-3.4,3.8c-0.9,2.5-3,4.3-3.7,6.9c-1.7,5.9,0.7,6.9-1.3,15.5
			c0,0,0.2-1.5-1.8-2.6c0,0-1.9-0.4-2.6,1.1c0.5-1-0.5-4.5-0.6-5.6c-0.2-2.7-0.5-5.5-0.1-8.2c0.4-2.9,0.7-5.7,0.8-8.6
			c0.1-3.2,0.7-6.4,2.2-9.3c0.3-0.5,0.6-1.1,0.9-1.6c1.6-2.4,3.9-2.7,5-5.4c1.5-3.7,1.7-6.2,5.6-7.6c6.2-2.3,8.7-2.4,13.3-0.9
			C63.9,6.2,66,7.8,69,8.4c2.9,0.6,6.1,0.3,8.7,1.5c5.3,2.5,7.7,9.2,8.8,14.4c1.2,6,0.1,9.2,0.1,15.4c0,2.7-0.7,6.7-1.2,11.7
			c-0.1,1-2.5,0.3-3.5,1.5c-0.5,0.5-1,3.1-1,3.1L80.8,55.7z"/>
		<g>
			<path class="st49" d="M65.7,71.8c0,0-8.6,2.3-11.6,0"/>
			<path class="st50" d="M59.9,75.4c0,0-0.3,0.1-0.8,0c0,0,0,0.4,0.4,0.4C59.6,75.8,59.9,75.8,59.9,75.4z"/>
			<path class="st49" d="M61.7,74.2c0,0-2.1,0.6-4.2,0"/>
		</g>
	</g>
</g>
</svg>
