<svg width="638" height="142" viewBox="0 0 638 142" fill="none" xmlns="http://www.w3.org/2000/svg">
<path fill-rule="evenodd" clip-rule="evenodd" d="M64.1481 58.0923C72.9947 48.2676 89.0733 54.6471 89.0733 67.9657V103.312C89.0733 111.379 82.6513 117.923 74.7244 117.923H42.8962C30.4057 117.923 23.8853 102.806 32.3198 93.4391L64.1481 58.0923ZM76.3849 67.9657C76.3849 66.4168 74.5217 65.6872 73.5014 66.8203L41.6732 102.167C40.6922 103.257 41.4555 105.006 42.8962 105.006H74.7244C75.6393 105.006 76.3849 104.25 76.3849 103.312V67.9657Z" fill="#00C4F5"/>
<path fill-rule="evenodd" clip-rule="evenodd" d="M58.8021 46.3273C49.1366 46.3273 41.2196 54.3774 41.2196 64.4106C41.2196 74.4438 49.1366 82.4939 58.8021 82.4939C68.4676 82.4939 76.3846 74.4438 76.3846 64.4106C76.3846 54.3774 68.4676 46.3273 58.8021 46.3273ZM28.5312 64.4106C28.5312 47.3358 42.0389 33.4106 58.8021 33.4106C75.5653 33.4106 89.073 47.3358 89.073 64.4106C89.073 81.4854 75.5653 95.4106 58.8021 95.4106C42.0389 95.4106 28.5312 81.4854 28.5312 64.4106Z" fill="#FF7777"/>
<path fill-rule="evenodd" clip-rule="evenodd" d="M46.6723 77.5005L38.0967 87.0241C41.2379 90.0433 45.0099 92.3848 49.1924 93.8171L59.3977 82.4837C59.2002 82.4905 59.0019 82.4939 58.8029 82.4939C54.1127 82.4939 49.8342 80.5984 46.6723 77.5005ZM76.1858 67.1474C76.3172 66.2555 76.3854 65.3416 76.3854 64.4106C76.3854 60.2776 75.0419 56.481 72.7862 53.4451C80.3337 52.4479 88.2033 57.7754 89.0066 66.4908C88.3889 76.0225 83.5575 84.3983 76.3854 89.6496V67.9657C76.3854 67.6578 76.3118 67.3824 76.1858 67.1474Z" fill="#005267"/>
<path d="M169.402 91.4225C169.402 100.098 167.232 106.667 162.893 111.131C158.616 115.657 152.076 117.92 143.274 117.92C139.244 117.92 135.277 117.449 131.372 116.506C127.466 115.625 123.871 113.865 120.586 111.225L128.303 99.532C130.473 101.355 132.735 102.801 135.091 103.87C137.509 104.938 140.143 105.473 142.995 105.473C147.272 105.473 150.402 104.404 152.386 102.267C154.432 100.192 155.455 97.5204 155.455 94.2514V89.8194H155.269C153.657 92.0197 151.642 93.5913 149.225 94.5343C146.869 95.4144 144.637 95.8545 142.53 95.8545C139.182 95.8545 136.145 95.2887 133.417 94.1571C130.69 92.9627 128.334 91.3282 126.351 89.2537C124.429 87.1162 122.941 84.6017 121.887 81.7099C120.834 78.8181 120.307 75.6434 120.307 72.1859C120.307 69.1684 120.772 66.2137 121.701 63.3219C122.693 60.4301 124.057 57.8841 125.793 55.6839C127.59 53.4836 129.76 51.7234 132.302 50.4032C134.843 49.0202 137.726 48.3287 140.949 48.3287C142.933 48.3287 144.73 48.5487 146.342 48.9888C148.016 49.4288 149.504 49.9946 150.805 50.6861C152.107 51.3776 153.223 52.1634 154.153 53.0435C155.083 53.8608 155.826 54.678 156.384 55.4953H156.57V49.4602H169.402V91.4225ZM134.254 72.0916C134.254 73.6003 134.533 75.0462 135.091 76.4292C135.649 77.7494 136.424 78.9438 137.416 80.0125C138.469 81.0184 139.647 81.8356 140.949 82.4643C142.313 83.0929 143.801 83.4072 145.412 83.4072C146.962 83.4072 148.419 83.0929 149.782 82.4643C151.146 81.8356 152.324 81.0184 153.316 80.0125C154.37 78.9438 155.176 77.7494 155.733 76.4292C156.291 75.0462 156.57 73.6003 156.57 72.0916C156.57 70.5828 156.291 69.1684 155.733 67.8482C155.176 66.4652 154.37 65.2707 153.316 64.2649C152.324 63.1962 151.146 62.3475 149.782 61.7189C148.419 61.0902 146.962 60.7759 145.412 60.7759C143.801 60.7759 142.313 61.0902 140.949 61.7189C139.647 62.3475 138.469 63.1962 137.416 64.2649C136.424 65.2707 135.649 66.4652 135.091 67.8482C134.533 69.1684 134.254 70.5828 134.254 72.0916Z" fill="#2B353B"/>
<path d="M221.462 87.3677C219.23 90.2595 216.41 92.4912 213.001 94.0628C209.591 95.6344 206.058 96.4202 202.4 96.4202C198.929 96.4202 195.644 95.8545 192.544 94.7229C189.507 93.5913 186.841 91.9883 184.548 89.9137C182.316 87.7763 180.549 85.2303 179.247 82.2757C177.946 79.321 177.295 76.0206 177.295 72.3745C177.295 68.7283 177.946 65.4279 179.247 62.4733C180.549 59.5186 182.316 57.004 184.548 54.9295C186.841 52.7921 189.507 51.1576 192.544 50.026C195.644 48.8945 198.929 48.3287 202.4 48.3287C205.624 48.3287 208.537 48.8945 211.141 50.026C213.806 51.1576 216.038 52.7921 217.836 54.9295C219.695 57.004 221.121 59.5186 222.113 62.4733C223.105 65.4279 223.601 68.7283 223.601 72.3745V76.8064H191.242C191.8 79.5096 193.009 81.6784 194.869 83.3129C196.728 84.8845 199.022 85.6704 201.75 85.6704C204.043 85.6704 205.965 85.1674 207.515 84.1616C209.126 83.0929 210.521 81.7413 211.699 80.1068L221.462 87.3677ZM209.653 67.1881C209.715 64.7992 208.94 62.7561 207.329 61.0588C205.717 59.3614 203.64 58.5128 201.099 58.5128C199.549 58.5128 198.185 58.7642 197.007 59.2672C195.83 59.7701 194.807 60.4301 193.939 61.2474C193.133 62.0018 192.482 62.9133 191.986 63.982C191.552 64.9878 191.304 66.0565 191.242 67.1881H209.653Z" fill="#2B353B"/>
<path d="M261.001 60.7759H248.727V76.052C248.727 77.3093 248.789 78.4723 248.913 79.541C249.037 80.5469 249.316 81.427 249.749 82.1814C250.183 82.9357 250.834 83.533 251.702 83.973C252.632 84.3502 253.841 84.5388 255.329 84.5388C256.072 84.5388 257.033 84.4759 258.211 84.3502C259.451 84.1616 260.381 83.7844 261.001 83.2186V95.0058C259.451 95.5716 257.839 95.9488 256.165 96.1374C254.492 96.3259 252.849 96.4202 251.237 96.4202C248.882 96.4202 246.712 96.1688 244.728 95.6659C242.745 95.1629 241.009 94.3771 239.521 93.3084C238.034 92.1769 236.856 90.731 235.988 88.9708C235.182 87.2105 234.779 85.0731 234.779 82.5585V60.7759H225.853V49.4602H234.779V35.8814H248.727V49.4602H261.001V60.7759Z" fill="#2B353B"/>
<path d="M264.555 72.3745C264.555 68.7283 265.206 65.4279 266.508 62.4733C267.809 59.5186 269.576 57.004 271.808 54.9295C274.101 52.7921 276.767 51.1576 279.804 50.026C282.904 48.8945 286.189 48.3287 289.661 48.3287C293.132 48.3287 296.386 48.8945 299.424 50.026C302.523 51.1576 305.189 52.7921 307.421 54.9295C309.714 57.004 311.512 59.5186 312.814 62.4733C314.115 65.4279 314.766 68.7283 314.766 72.3745C314.766 76.0206 314.115 79.321 312.814 82.2757C311.512 85.2303 309.714 87.7763 307.421 89.9137C305.189 91.9883 302.523 93.5913 299.424 94.7229C296.386 95.8545 293.132 96.4202 289.661 96.4202C286.189 96.4202 282.904 95.8545 279.804 94.7229C276.767 93.5913 274.101 91.9883 271.808 89.9137C269.576 87.7763 267.809 85.2303 266.508 82.2757C265.206 79.321 264.555 76.0206 264.555 72.3745ZM278.503 72.3745C278.503 75.832 279.463 78.6295 281.385 80.7669C283.369 82.9043 286.127 83.973 289.661 83.973C293.194 83.973 295.922 82.9043 297.843 80.7669C299.827 78.6295 300.819 75.832 300.819 72.3745C300.819 68.9169 299.827 66.1194 297.843 63.982C295.922 61.8446 293.194 60.7759 289.661 60.7759C286.127 60.7759 283.369 61.8446 281.385 63.982C279.463 66.1194 278.503 68.9169 278.503 72.3745Z" fill="#2B353B"/>
<path d="M321.122 49.4602H334.511V55.6839H334.697C335.131 54.8037 335.751 53.9236 336.557 53.0435C337.363 52.1634 338.324 51.3776 339.44 50.6861C340.555 49.9946 341.826 49.4288 343.252 48.9888C344.678 48.5487 346.227 48.3287 347.901 48.3287C351.435 48.3287 354.286 48.8945 356.456 50.026C358.625 51.0947 360.299 52.6035 361.477 54.5523C362.717 56.5011 363.553 58.7957 363.987 61.436C364.421 64.0763 364.638 66.9366 364.638 70.017V95.2887H350.691V72.8459C350.691 71.5258 350.629 70.1742 350.505 68.7912C350.443 67.3453 350.164 66.0251 349.668 64.8307C349.234 63.6363 348.521 62.6618 347.529 61.9075C346.599 61.1531 345.236 60.7759 343.438 60.7759C341.64 60.7759 340.183 61.1217 339.068 61.8132C337.952 62.4418 337.084 63.3219 336.464 64.4535C335.906 65.5222 335.534 66.7481 335.348 68.1311C335.162 69.5141 335.069 70.96 335.069 72.4688V95.2887H321.122V49.4602Z" fill="#2B353B"/>
<path d="M373.957 24H387.905V54.3637H388.09C389.702 52.1634 391.748 50.6232 394.227 49.7431C396.769 48.8002 399.496 48.3287 402.41 48.3287C405.633 48.3287 408.516 49.0202 411.057 50.4032C413.599 51.7234 415.738 53.515 417.473 55.7782C419.271 58.0413 420.635 60.6502 421.565 63.6048C422.556 66.4966 423.052 69.5455 423.052 72.7516C423.052 76.2092 422.525 79.3839 421.472 82.2757C420.418 85.1674 418.899 87.682 416.915 89.8194C414.994 91.894 412.669 93.5285 409.942 94.7229C407.214 95.8545 404.177 96.4202 400.829 96.4202C399.218 96.4202 397.699 96.2002 396.273 95.7602C394.847 95.3201 393.515 94.7543 392.275 94.0628C391.097 93.3713 390.043 92.6169 389.113 91.7997C388.245 90.9196 387.533 90.0709 386.975 89.2537H386.789V95.2887H373.957V24ZM386.789 72.3745C386.789 75.832 387.75 78.6295 389.671 80.7669C391.655 82.9043 394.413 83.973 397.947 83.973C401.48 83.973 404.208 82.9043 406.129 80.7669C408.113 78.6295 409.105 75.832 409.105 72.3745C409.105 68.9169 408.113 66.1194 406.129 63.982C404.208 61.8446 401.48 60.7759 397.947 60.7759C394.413 60.7759 391.655 61.8446 389.671 63.982C387.75 66.1194 386.789 68.9169 386.789 72.3745Z" fill="#2B353B"/>
<path d="M427.691 72.3745C427.691 68.7283 428.342 65.4279 429.643 62.4733C430.945 59.5186 432.712 57.004 434.943 54.9295C437.237 52.7921 439.903 51.1576 442.94 50.026C446.039 48.8945 449.325 48.3287 452.796 48.3287C456.268 48.3287 459.522 48.8945 462.56 50.026C465.659 51.1576 468.325 52.7921 470.556 54.9295C472.85 57.004 474.647 59.5186 475.949 62.4733C477.251 65.4279 477.902 68.7283 477.902 72.3745C477.902 76.0206 477.251 79.321 475.949 82.2757C474.647 85.2303 472.85 87.7763 470.556 89.9137C468.325 91.9883 465.659 93.5913 462.56 94.7229C459.522 95.8545 456.268 96.4202 452.796 96.4202C449.325 96.4202 446.039 95.8545 442.94 94.7229C439.903 93.5913 437.237 91.9883 434.943 89.9137C432.712 87.7763 430.945 85.2303 429.643 82.2757C428.342 79.321 427.691 76.0206 427.691 72.3745ZM441.638 72.3745C441.638 75.832 442.599 78.6295 444.521 80.7669C446.504 82.9043 449.263 83.973 452.796 83.973C456.33 83.973 459.057 82.9043 460.979 80.7669C462.963 78.6295 463.954 75.832 463.954 72.3745C463.954 68.9169 462.963 66.1194 460.979 63.982C459.057 61.8446 456.33 60.7759 452.796 60.7759C449.263 60.7759 446.504 61.8446 444.521 63.982C442.599 66.1194 441.638 68.9169 441.638 72.3745Z" fill="#2B353B"/>
<path d="M512.618 89.5365H512.432C510.882 91.9883 508.805 93.7485 506.202 94.8172C503.66 95.8859 500.964 96.4202 498.112 96.4202C496.004 96.4202 493.959 96.1059 491.975 95.4773C490.053 94.9115 488.349 94.0314 486.861 92.8369C485.373 91.6425 484.195 90.1652 483.328 88.405C482.46 86.6448 482.026 84.6017 482.026 82.2757C482.026 79.6353 482.491 77.4036 483.421 75.5806C484.412 73.7575 485.714 72.2487 487.326 71.0543C489 69.8599 490.89 68.9483 492.998 68.3197C495.106 67.6282 497.275 67.1252 499.507 66.8109C501.8 66.4966 504.063 66.308 506.295 66.2451C508.588 66.1823 510.696 66.1508 512.618 66.1508C512.618 63.6363 511.719 61.656 509.921 60.2101C508.185 58.7014 506.109 57.947 503.691 57.947C501.397 57.947 499.29 58.4499 497.368 59.4557C495.508 60.3987 493.835 61.7189 492.347 63.4162L484.908 55.6839C487.512 53.2321 490.549 51.409 494.021 50.2146C497.492 48.9573 501.088 48.3287 504.807 48.3287C508.898 48.3287 512.246 48.863 514.849 49.9317C517.515 50.9376 519.622 52.4463 521.172 54.458C522.784 56.4697 523.9 58.9528 524.519 61.9075C525.139 64.7993 525.449 68.1625 525.449 71.9973V95.2887H512.618V89.5365ZM509.177 75.2034C508.123 75.2034 506.791 75.2662 505.179 75.392C503.629 75.4548 502.11 75.7063 500.623 76.1463C499.197 76.5864 497.957 77.2465 496.903 78.1266C495.911 79.0067 495.416 80.2326 495.416 81.8042C495.416 83.5015 496.128 84.7588 497.554 85.5761C498.98 86.3933 500.468 86.8019 502.017 86.8019C503.381 86.8019 504.683 86.6133 505.923 86.2361C507.224 85.859 508.371 85.3246 509.363 84.6331C510.355 83.9416 511.13 83.0615 511.688 81.9928C512.308 80.9241 512.618 79.6668 512.618 78.2209V75.2034H509.177Z" fill="#2B353B"/>
<path d="M532.34 49.4602H546.288V56.8154H546.474C547.962 53.9865 549.728 51.8805 551.774 50.4975C553.82 49.0516 556.392 48.3287 559.492 48.3287C560.297 48.3287 561.103 48.3601 561.909 48.423C562.715 48.4858 563.459 48.6116 564.141 48.8002V61.7189C563.149 61.4045 562.157 61.1845 561.165 61.0588C560.235 60.8702 559.244 60.7759 558.19 60.7759C555.524 60.7759 553.417 61.1531 551.867 61.9075C550.317 62.6618 549.108 63.7305 548.241 65.1136C547.435 66.4337 546.908 68.0368 546.66 69.9227C546.412 71.8087 546.288 73.8832 546.288 76.1463V95.2887H532.34V49.4602Z" fill="#2B353B"/>
<path d="M614.133 95.2887H601.302V89.2537H601.116C600.558 90.0709 599.814 90.9196 598.884 91.7997C598.016 92.6169 596.962 93.3713 595.723 94.0628C594.545 94.7543 593.212 95.3201 591.724 95.7602C590.298 96.2002 588.811 96.4202 587.261 96.4202C583.914 96.4202 580.876 95.8545 578.149 94.7229C575.421 93.5285 573.065 91.894 571.082 89.8194C569.16 87.682 567.672 85.1674 566.619 82.2757C565.565 79.3839 565.038 76.2092 565.038 72.7516C565.038 69.5455 565.503 66.4966 566.433 63.6048C567.424 60.6502 568.788 58.0413 570.524 55.7782C572.322 53.515 574.491 51.7234 577.033 50.4032C579.574 49.0202 582.457 48.3287 585.68 48.3287C588.594 48.3287 591.29 48.8002 593.77 49.7431C596.311 50.6232 598.388 52.1634 600 54.3637H600.186V24H614.133V95.2887ZM601.302 72.3745C601.302 68.9169 600.31 66.1194 598.326 63.982C596.404 61.8446 593.677 60.7759 590.143 60.7759C586.61 60.7759 583.852 61.8446 581.868 63.982C579.946 66.1194 578.985 68.9169 578.985 72.3745C578.985 75.832 579.946 78.6295 581.868 80.7669C583.852 82.9043 586.61 83.973 590.143 83.973C593.677 83.973 596.404 82.9043 598.326 80.7669C600.31 78.6295 601.302 75.832 601.302 72.3745Z" fill="#2B353B"/>
</svg>
